<?xml version="1.0" encoding="utf-8"?>
<!-- Generator: Adobe Illustrator 24.1.2, SVG Export Plug-In . SVG Version: 6.00 Build 0)  -->
<svg version="1.1" id="Слой_1" xmlns="http://www.w3.org/2000/svg" xmlns:xlink="http://www.w3.org/1999/xlink" x="0px" y="0px"
	 viewBox="0 0 4000 3600" style="enable-background:new 0 0 4000 3600;" xml:space="preserve">
<style type="text/css">
	.st0{fill:#70554B;}
	.st1{fill:#7C00FF;}
	.st2{fill:#B5FF00;}
</style>
<rect class="st0" width="4000" height="3600"/>
<polygon class="st1" points="486.2303772,1146.1192627 380.1335449,1584.1307373 509.9314575,1622.7728271 509.9314575,1800 
	1145.0494385,1800 1145.0494385,1574.2225342 1337.2692871,1574.2225342 1337.2692871,1254.1864014 1275.8381348,1254.1864014 
	1246.1134033,1147.1774902 961.7470703,1222.1497803 961.7470703,1237.6727295 770.1878052,1237.6727295 770.1878052,1223.4709473 
	"/>
<polygon class="st1" points="3516.6723633,1146.1192627 3622.7692871,1584.1307373 3492.9711914,1622.7728271 3492.9711914,1800 
	2857.8532715,1800 2857.8532715,1574.2225342 2665.6335449,1574.2225342 2665.6335449,1254.1864014 2727.0646973,1254.1864014 
	2756.7893066,1147.1774902 3041.1557617,1222.1497803 3041.1557617,1237.6727295 3232.7148438,1237.6727295 
	3232.7148438,1223.4709473 "/>
<polygon class="st2" points="3516.6723633,2453.8806152 3622.7692871,2015.8692627 3492.9711914,1977.2271729 3492.9711914,1800 
	2754.4775391,1800 2754.4775391,2025.7775879 2754.4775391,2345.8134766 2727.0644531,2345.8134766 2756.7893066,2452.8225098 
	3041.1557617,2377.8500977 3041.1557617,2362.3273926 3232.7148438,2362.3273926 3232.7148438,2376.5290527 "/>
<polygon class="st2" points="486.2304688,2453.8806152 380.1335449,2015.8692627 509.9316406,1977.2271729 509.9316406,1800 
	1248.425415,1800 1248.425415,2025.7775879 1248.425415,2345.8134766 1275.8382568,2345.8134766 1246.1135254,2452.8225098 
	961.7470703,2377.8500977 961.7470703,2362.3273926 770.1878662,2362.3273926 770.1878662,2376.5290527 "/>
<polygon class="st1" points="1275.8382568,2345.8134766 1248.425415,2345.8134766 1248.425415,1800 1248.425415,1710.2956543 
	1751.7637939,1710.2956543 1751.7637939,2307.4321289 1520.5716553,2307.4321289 1520.5716553,2328.5695801 
	1280.1317139,2328.5695801 "/>
<polygon class="st1" points="2726.7341309,2345.8134766 2754.1469727,2345.8134766 2754.1469727,1800 2754.1469727,1710.2956543 
	2250.8085938,1710.2956543 2250.8085938,2307.4321289 2482.0009766,2307.4321289 2482.0009766,2328.5695801 
	2722.4406738,2328.5695801 "/>
<polygon class="st2" points="2250.8085938,1710.2956543 1751.7637939,1710.2956543 1751.7637939,2307.4321289 
	1738.5528564,2307.4321289 1738.5528564,2328.5695801 1961.8184814,2369.5236816 2042.4053955,2369.5236816 
	2261.7077637,2328.5695801 2261.7077637,2307.4321289 2250.8085938,2307.4321289 "/>
</svg>
