<svg width="53" height="52" viewBox="0 0 53 52" fill="none" xmlns="http://www.w3.org/2000/svg">
<path fill-rule="evenodd" clip-rule="evenodd" d="M26.5234 42.6387C35.6361 42.6387 43.0234 35.2514 43.0234 26.1387C43.0234 17.026 35.6361 9.63867 26.5234 9.63867C17.4107 9.63867 10.0234 17.026 10.0234 26.1387C10.0234 35.2514 17.4107 42.6387 26.5234 42.6387ZM26.5234 43.6387C36.1884 43.6387 44.0234 35.8037 44.0234 26.1387C44.0234 16.4737 36.1884 8.63867 26.5234 8.63867C16.8585 8.63867 9.02344 16.4737 9.02344 26.1387C9.02344 35.8037 16.8585 43.6387 26.5234 43.6387Z" fill="#222222"/>
<path fill-rule="evenodd" clip-rule="evenodd" d="M26.1683 0.785118C26.3635 0.589856 26.6801 0.589856 26.8754 0.785118L30.0574 3.9671C30.2526 4.16236 30.2526 4.47894 30.0574 4.67421C29.8621 4.86947 29.5455 4.86947 29.3503 4.67421L27.0218 2.34578V26.1387H26.0218V2.34578L23.6934 4.67421C23.4981 4.86947 23.1816 4.86947 22.9863 4.67421C22.791 4.47894 22.791 4.16236 22.9863 3.9671L26.1683 0.785118Z" fill="#EF1B34"/>
</svg>
