<svg width="367" height="300" viewBox="0 0 367 300" fill="none" xmlns="http://www.w3.org/2000/svg">
<rect x="111.77" y="207.604" width="42.5532" height="16.0166" transform="rotate(-37.02 111.77 207.604)" fill="white" stroke="#828282"/>
<rect x="101.162" y="253.398" width="314.515" height="24.1057" transform="rotate(-37.02 101.162 253.398)" fill="#E3E3E3"/>
<rect y="160.133" width="30.6779" height="175.18" transform="rotate(-37.02 0 160.133)" fill="#E3E3E3"/>
<rect x="163.686" y="168.455" width="42.5532" height="16.0166" transform="rotate(-37.02 163.686 168.455)" fill="#222222" stroke="#222222"/>
<rect x="244.422" y="107.572" width="44.4635" height="16.0166" transform="rotate(-37.02 244.422 107.572)" fill="white" stroke="#828282"/>
<path fill-rule="evenodd" clip-rule="evenodd" d="M312.463 56.2617L297.563 36.5037L284.775 46.1472L299.675 65.9052L279.923 80.8L289.566 93.5881L322.112 69.0453L312.469 56.2572L312.463 56.2617Z" fill="white"/>
<path d="M297.563 36.5037L297.962 36.2027L297.661 35.8034L297.262 36.1045L297.563 36.5037ZM312.463 56.2617L312.064 56.5628L312.365 56.962L312.764 56.6609L312.463 56.2617ZM284.775 46.1472L284.474 45.748L284.075 46.049L284.376 46.4483L284.775 46.1472ZM299.675 65.9052L299.976 66.3044L300.375 66.0034L300.074 65.6042L299.675 65.9052ZM279.923 80.8L279.622 80.4008L279.223 80.7018L279.524 81.101L279.923 80.8ZM289.566 93.5881L289.167 93.8891L289.468 94.2883L289.868 93.9873L289.566 93.5881ZM322.112 69.0453L322.413 69.4445L322.812 69.1435L322.511 68.7443L322.112 69.0453ZM312.469 56.2572L312.868 55.9562L312.567 55.557L312.168 55.858L312.469 56.2572ZM297.164 36.8048L312.064 56.5628L312.862 55.9607L297.962 36.2027L297.164 36.8048ZM285.076 46.5464L297.864 36.9029L297.262 36.1045L284.474 45.748L285.076 46.5464ZM300.074 65.6042L285.174 45.8462L284.376 46.4483L299.275 66.2063L300.074 65.6042ZM280.224 81.1992L299.976 66.3044L299.374 65.506L279.622 80.4008L280.224 81.1992ZM289.966 93.287L280.322 80.4989L279.524 81.101L289.167 93.8891L289.966 93.287ZM321.811 68.6461L289.265 93.1889L289.868 93.9873L322.413 69.4445L321.811 68.6461ZM312.069 56.5583L321.713 69.3464L322.511 68.7443L312.868 55.9562L312.069 56.5583ZM312.764 56.6609L312.77 56.6564L312.168 55.858L312.162 55.8625L312.764 56.6609Z" fill="#828282"/>
<rect x="270.799" y="1" width="44.4635" height="16.0166" transform="rotate(52.98 270.799 1)" fill="white" stroke="#828282"/>
<path d="M19.2305 170.523L20.089 171.657C20.7022 172.468 21.2716 172.547 22.0295 172.313L30.4738 169.662L29.6153 168.527L24.4462 170.23L24.2827 170.013L27.2033 165.34L26.3448 164.205L22.2398 170.795L21.6228 170.99C21.4794 171.047 21.1841 171.084 21.0206 170.867L20.203 169.787L19.2305 170.523Z" fill="#707070"/>
<path d="M24.9361 173.684L25.2631 174.116C26.048 175.154 26.97 175.272 28.2594 174.483L31.2029 172.647L32.5274 174.397L28.0971 177.749L28.9147 178.83L34.3176 174.742L31.415 170.906L27.6038 173.28C26.9578 173.684 26.4941 173.61 26.167 173.178L25.9626 172.907L24.9361 173.684Z" fill="#707070"/>
<path d="M29.9351 180.179L30.8754 181.421L32.118 180.481L31.1778 179.238L29.9351 180.179Z" fill="#707070"/>
<path d="M40.6695 188.976C39.6629 189.33 38.3128 189.23 37.3726 187.987C36.3015 186.571 36.5726 184.684 38.3015 183.376C40.0305 182.068 41.9205 182.32 42.9916 183.735C43.7192 184.697 43.8412 185.981 43.1008 187.136L44.0002 188.325C45.1138 186.989 45.503 184.809 44.0721 182.918C42.5677 180.929 39.7663 180.483 37.443 182.241C35.1198 183.999 34.7876 186.816 36.292 188.805C37.8373 190.847 40.1841 190.804 41.5689 190.164L40.6695 188.976Z" fill="#707070"/>
<path d="M42.5011 194.989C41.8061 194.071 41.9879 192.829 43.1117 191.979C44.2355 191.128 45.4801 191.291 46.1751 192.21C46.87 193.128 46.6883 194.37 45.5645 195.22C44.4407 196.071 43.1961 195.908 42.5011 194.989ZM41.5286 195.725C42.7141 197.292 44.7072 197.568 46.3821 196.301C48.057 195.034 48.3331 193.041 47.1476 191.474C45.962 189.907 43.9689 189.631 42.294 190.898C40.6191 192.165 40.343 194.159 41.5286 195.725Z" fill="#707070"/>
<path d="M44.5398 199.48L46.8292 202.506C47.5241 203.425 48.758 203.595 49.5684 202.982C50.0547 202.614 50.1992 202.199 50.2656 201.86C50.2837 201.659 50.2802 201.475 50.2387 201.286L50.2928 201.245C50.4475 201.315 50.6157 201.357 50.7974 201.373C51.1037 201.396 51.4965 201.353 51.9179 201.035C52.7824 200.38 52.9352 199.347 52.1503 198.31L49.9427 195.392L44.5398 199.48ZM48.5452 198.149L49.8418 197.168L51.1092 198.843C51.4362 199.275 51.3705 199.75 50.9923 200.036C50.6141 200.322 50.1395 200.256 49.8125 199.824L48.5452 198.149ZM46.2759 199.866L47.6807 198.803L48.9889 200.532C49.3159 200.964 49.237 201.534 48.8588 201.82C48.4806 202.106 47.9112 202.027 47.5841 201.595L46.2759 199.866Z" fill="#707070"/>
<path d="M52.6623 203.703C53.6494 203.211 54.6525 203.301 55.3475 204.22C56.0016 205.084 55.8488 206.117 55.0742 206.89L52.6623 203.703ZM53.303 207.806C52.794 207.919 52.056 207.73 51.5654 207.081C50.9114 206.217 51.0233 205.13 51.8518 204.316L54.9997 208.476L55.1673 208.383C55.2727 208.32 55.4187 208.244 55.5808 208.121C57.0936 206.977 57.3697 204.983 56.266 203.525C55.0804 201.958 53.0873 201.682 51.4124 202.949C49.7375 204.216 49.4614 206.209 50.647 207.776C51.7099 209.181 53.2629 209.212 54.1615 208.94L53.303 207.806Z" fill="#707070"/>
<path d="M54.3589 212.458L55.1765 213.538L59.5529 210.227L60.902 212.01L61.9285 211.233L58.4127 206.586L57.3862 207.363L58.7353 209.146L54.3589 212.458Z" fill="#707070"/>
<path d="M61.8133 218.379C61.2911 218.587 60.3779 218.616 59.7238 217.751C59.0288 216.833 59.2106 215.591 60.3344 214.74C61.4582 213.89 62.7028 214.053 63.3978 214.971C64.0192 215.793 63.8436 216.571 63.4882 217.112L64.3058 218.193C64.9206 217.455 65.5967 215.856 64.3703 214.235C63.1847 212.669 61.1916 212.393 59.5167 213.66C57.8418 214.927 57.5657 216.92 58.7513 218.487C59.9777 220.108 61.6896 219.9 62.6309 219.46L61.8133 218.379Z" fill="#707070"/>
<path d="M61.5549 221.968L62.3726 223.048L64.9659 221.086L64.1713 225.426L65.1525 226.722L65.9865 222.098L70.4736 222.526L69.4924 221.23L65.2901 220.841L67.7754 218.96L66.9578 217.88L61.5549 221.968Z" fill="#707070"/>
<path d="M68.1874 228.937C67.4925 228.018 67.6742 226.776 68.798 225.926C69.9218 225.076 71.1664 225.239 71.8614 226.157C72.5564 227.075 72.3747 228.317 71.2509 229.168C70.1271 230.018 68.8824 229.855 68.1874 228.937ZM67.2149 229.673C68.4005 231.24 70.3936 231.516 72.0685 230.248C73.7434 228.981 74.0195 226.988 72.8339 225.421C71.6484 223.854 69.6553 223.578 67.9804 224.846C66.3055 226.113 66.0294 228.106 67.2149 229.673Z" fill="#707070"/>
<path d="M70.2262 233.428L71.4117 234.995L76.6917 233.888L76.8553 234.104L72.9652 237.048L73.7828 238.128L79.1857 234.04L78.0002 232.473L72.7201 233.58L72.5566 233.364L76.4467 230.42L75.6291 229.34L70.2262 233.428ZM78.5246 228.338C77.701 229.046 77.5973 230.144 78.2923 231.063C78.9873 231.981 80.0721 232.18 80.9775 231.58L80.3234 230.716C79.7472 230.965 79.3348 230.869 79.0487 230.491C78.7625 230.112 78.7824 229.69 79.1787 229.203L78.5246 228.338Z" fill="#707070"/>
<path d="M76.2421 241.379L77.1823 242.621L79.4558 241.92L82.0722 245.378L80.7799 247.376L81.7201 248.618L87.1992 240.14L85.891 238.411L76.2421 241.379ZM80.7686 241.522L85.1667 240.148L85.3302 240.364L82.8126 244.223L80.7686 241.522Z" fill="#707070"/>
<path d="M80.0898 250.955L80.9074 252.036L83.7169 249.91L83.7578 249.964C83.6643 250.29 83.4838 251.174 84.2687 252.211C85.3398 253.627 87.2298 253.879 88.9587 252.571C90.6876 251.263 90.9588 249.375 89.8877 247.96C89.0946 246.911 88.2083 246.885 87.864 246.857L87.8231 246.803L88.3897 246.204L87.6538 245.232L80.0898 250.955ZM85.1186 251.313C84.4645 250.449 84.6462 249.207 85.77 248.356C86.8938 247.506 88.1384 247.669 88.7925 248.533C89.4466 249.398 89.2649 250.64 88.1411 251.49C87.0173 252.34 85.7727 252.178 85.1186 251.313Z" fill="#707070"/>
<path d="M87.1135 255.746L87.9311 256.827L91.8752 253.843L92.0388 254.059L89.0758 258.34L89.9752 259.528L94.9004 257.841L95.064 258.057L91.1199 261.041L91.9375 262.122L97.3404 258.034L95.9913 256.251L91.066 257.938L90.9025 257.722L93.8655 253.441L92.5164 251.658L87.1135 255.746Z" fill="#707070"/>
<path d="M92.9981 263.524L94.1837 265.09L99.4637 263.984L99.6273 264.2L95.7372 267.144L96.5548 268.224L101.958 264.136L100.772 262.569L95.4921 263.676L95.3286 263.46L99.2187 260.516L98.401 259.436L92.9981 263.524Z" fill="#707070"/>
<path d="M97.6212 269.634L98.8068 271.2L104.087 270.094L104.25 270.31L100.36 273.253L101.178 274.334L106.581 270.246L105.395 268.679L100.115 269.786L99.9516 269.569L103.842 266.626L103.024 265.545L97.6212 269.634Z" fill="#707070"/>
<path d="M274.654 21.8552C273.843 22.6672 273.117 24.3021 274.488 26.0853C275.686 27.6428 277.586 27.891 279.09 26.7346C280.551 25.6112 280.797 23.73 279.715 22.3229C279.252 21.7213 278.777 21.437 278.306 21.2692L278.265 21.2155L280.256 20.0262L282.734 23.2487L283.808 22.4227L280.587 18.2334L276.121 20.9838L277.03 22.1654C277.463 22.1738 278.054 22.3862 278.517 22.9877C279.219 23.9008 279.082 24.9459 278.223 25.6067C277.31 26.3088 276.265 26.1723 275.563 25.2592C274.894 24.3892 275.065 23.5225 275.522 22.9831L274.654 21.8552Z" fill="black"/>
<path d="M176.465 216.394L177.603 215.54L174.919 211.963L180.724 213.198L182.155 212.124L175.908 210.798L176.245 204.7L174.814 205.773L174.512 211.421L171.91 207.953L170.771 208.807L176.465 216.394Z" fill="#707070"/>
<path d="M186.06 209.194L186.981 208.502L184.379 205.034C183.435 203.777 182.031 203.577 180.611 204.642C179.257 205.659 179.021 207.038 179.65 207.989L180.734 207.176C180.544 206.81 180.544 206.133 181.303 205.563C182.007 205.035 182.766 205.143 183.295 205.847L183.376 205.956L182.021 206.972C180.504 208.111 180.328 209.344 181.141 210.428C181.881 211.414 183.161 211.539 184.353 210.644C184.916 210.221 185.198 209.738 185.328 209.37C185.407 209.158 185.447 208.942 185.45 208.719L185.504 208.679L186.06 209.194ZM184.189 207.039C184.881 207.961 184.756 208.901 183.77 209.641C183.12 210.129 182.551 210.048 182.185 209.56C181.819 209.073 181.902 208.417 182.726 207.799L184.027 206.823L184.189 207.039Z" fill="#707070"/>
<path d="M189.964 209.652L191.048 208.839L188.933 206.021L188.988 205.98C189.313 206.075 190.196 206.259 191.237 205.478C192.657 204.413 192.916 202.524 191.615 200.79C190.314 199.055 188.427 198.777 187.008 199.842C185.956 200.631 185.927 201.517 185.897 201.862L185.843 201.902L185.247 201.333L184.271 202.065L189.964 209.652ZM190.342 204.625C189.475 205.275 188.234 205.089 187.388 203.961C186.542 202.834 186.71 201.59 187.577 200.94C188.444 200.289 189.685 200.476 190.531 201.603C191.377 202.73 191.209 203.974 190.342 204.625Z" fill="#707070"/>
<path d="M194.068 203.269L194.501 202.944C195.542 202.163 195.664 201.241 194.88 199.949L193.055 196.998L194.811 195.681L198.146 200.124L199.23 199.311L195.163 193.892L191.316 196.779L193.674 200.6C194.076 201.247 194 201.711 193.566 202.036L193.295 202.239L194.068 203.269Z" fill="#707070"/>
<path d="M204.159 195.612L205.08 194.921L202.478 191.452C201.534 190.195 200.13 189.995 198.71 191.06C197.356 192.077 197.12 193.457 197.749 194.408L198.833 193.594C198.643 193.228 198.643 192.551 199.402 191.982C200.106 191.453 200.865 191.561 201.394 192.266L201.475 192.374L200.12 193.391C198.603 194.529 198.427 195.762 199.24 196.846C199.981 197.833 201.26 197.957 202.452 197.062C203.016 196.639 203.297 196.157 203.427 195.788C203.506 195.577 203.546 195.36 203.549 195.138L203.603 195.097L204.159 195.612ZM202.288 193.458C202.98 194.379 202.855 195.32 201.869 196.06C201.219 196.548 200.65 196.467 200.284 195.979C199.918 195.491 200.001 194.835 200.825 194.217L202.126 193.241L202.288 193.458Z" fill="#707070"/>
<path d="M209.096 191.907L210.234 191.053L205.883 185.255L206.099 185.092L212.401 189.427L213.919 188.288L211.519 181.026L211.735 180.863L216.086 186.661L217.225 185.807L211.531 178.221L209.58 179.685L212.049 187.15L211.832 187.313L205.354 182.857L203.403 184.32L209.096 191.907Z" fill="#707070"/>
<path d="M222.269 182.022L223.19 181.331L220.587 177.863C219.644 176.606 218.24 176.405 216.82 177.471C215.465 178.487 215.23 179.867 215.859 180.818L216.943 180.005C216.753 179.639 216.753 178.961 217.511 178.392C218.216 177.863 218.975 177.972 219.503 178.676L219.585 178.785L218.23 179.801C216.713 180.94 216.537 182.173 217.35 183.257C218.09 184.243 219.369 184.367 220.562 183.473C221.125 183.05 221.407 182.567 221.537 182.199C221.615 181.987 221.656 181.771 221.659 181.548L221.713 181.508L222.269 182.022ZM220.398 179.868C221.089 180.79 220.965 181.73 219.979 182.47C219.328 182.958 218.759 182.877 218.393 182.389C218.027 181.902 218.111 181.246 218.935 180.628L220.235 179.652L220.398 179.868Z" fill="#707070"/>
<path d="M226.173 182.481L227.257 181.668L225.142 178.85L225.196 178.809C225.522 178.904 226.405 179.088 227.446 178.307C228.865 177.242 229.125 175.353 227.824 173.618C226.522 171.884 224.636 171.606 223.216 172.671C222.165 173.46 222.135 174.346 222.106 174.69L222.052 174.731L221.455 174.162L220.48 174.894L226.173 182.481ZM226.551 177.454C225.684 178.104 224.443 177.917 223.597 176.79C222.751 175.663 222.919 174.419 223.786 173.768C224.653 173.118 225.894 173.305 226.74 174.432C227.586 175.559 227.418 176.803 226.551 177.454Z" fill="#707070"/>
<path d="M230.992 175.476L232.076 174.663L230.124 172.062L234.46 172.874L235.761 171.898L231.14 171.045L231.586 166.56L230.285 167.536L229.88 171.737L228.009 169.244L226.926 170.057L230.992 175.476Z" fill="#707070"/>
<path d="M238.624 166.785C238.83 167.308 238.855 168.221 237.987 168.872C237.066 169.563 235.825 169.376 234.979 168.249C234.133 167.122 234.301 165.878 235.222 165.187C236.046 164.568 236.824 164.747 237.363 165.105L238.447 164.291C237.712 163.674 236.116 162.991 234.49 164.211C232.919 165.39 232.635 167.382 233.895 169.062C235.156 170.742 237.148 171.026 238.719 169.847C240.345 168.627 240.144 166.914 239.708 165.971L238.624 166.785Z" fill="#707070"/>
<path d="M245.734 164.414L246.655 163.723L244.052 160.254C243.109 158.997 241.705 158.797 240.285 159.862C238.931 160.879 238.695 162.259 239.324 163.21L240.408 162.396C240.218 162.03 240.218 161.353 240.977 160.784C241.681 160.255 242.44 160.363 242.969 161.068L243.05 161.176L241.695 162.193C240.178 163.331 240.002 164.564 240.815 165.648C241.555 166.635 242.835 166.759 244.027 165.864C244.59 165.441 244.872 164.959 245.002 164.59C245.081 164.379 245.121 164.162 245.124 163.94L245.178 163.899L245.734 164.414ZM243.863 162.26C244.555 163.181 244.43 164.122 243.444 164.862C242.794 165.35 242.224 165.269 241.858 164.781C241.492 164.293 241.576 163.637 242.4 163.019L243.701 162.043L243.863 162.26Z" fill="#707070"/>
<path d="M250.562 160.791L251.646 159.977L248.312 155.534L250.859 153.622L254.193 158.066L255.277 157.253L251.21 151.834L246.496 155.371L250.562 160.791Z" fill="#707070"/>
<path d="M258.317 158.36L259.401 157.546L257.286 154.728L257.341 154.688C257.666 154.782 258.549 154.966 259.59 154.186C261.01 153.12 261.269 151.231 259.968 149.497C258.667 147.763 256.78 147.484 255.361 148.55C254.309 149.339 254.28 150.225 254.25 150.569L254.196 150.61L253.599 150.041L252.624 150.773L258.317 158.36ZM258.695 153.332C257.828 153.983 256.587 153.796 255.741 152.669C254.895 151.542 255.063 150.298 255.93 149.647C256.797 148.997 258.038 149.183 258.884 150.31C259.73 151.438 259.562 152.682 258.695 153.332Z" fill="#707070"/>
<path d="M264.924 148.658C264.003 149.349 262.762 149.163 261.916 148.035C261.07 146.908 261.238 145.664 262.159 144.973C263.08 144.282 264.322 144.468 265.167 145.595C266.013 146.723 265.846 147.967 264.924 148.658ZM265.656 149.633C267.228 148.454 267.512 146.462 266.251 144.782C264.991 143.102 262.999 142.818 261.427 143.998C259.856 145.177 259.572 147.169 260.832 148.849C262.093 150.529 264.085 150.813 265.656 149.633Z" fill="#707070"/>
<path d="M271.848 141.853C272.054 142.376 272.078 143.289 271.211 143.94C270.29 144.631 269.049 144.445 268.203 143.318C267.357 142.19 267.525 140.946 268.446 140.255C269.27 139.637 270.048 139.816 270.587 140.173L271.671 139.36C270.936 138.742 269.34 138.06 267.714 139.28C266.143 140.459 265.859 142.451 267.119 144.131C268.38 145.811 270.372 146.095 271.943 144.916C273.569 143.696 273.368 141.983 272.932 141.04L271.848 141.853Z" fill="#707070"/>
<path d="M275.435 142.126L276.519 141.313L273.185 136.869L275.731 134.958L279.066 139.401L280.15 138.588L276.083 133.169L271.369 136.707L275.435 142.126Z" fill="#707070"/>
<path d="M280.018 133.774C279.53 132.785 279.624 131.782 280.546 131.091C281.413 130.44 282.445 130.597 283.215 131.375L280.018 133.774ZM284.123 133.15C284.235 133.659 284.042 134.396 283.392 134.884C282.525 135.535 281.438 135.419 280.628 134.587L284.8 131.456L284.708 131.288C284.646 131.182 284.57 131.036 284.448 130.873C283.309 129.356 281.317 129.072 279.854 130.17C278.283 131.349 277.999 133.341 279.259 135.021C280.52 136.701 282.512 136.985 284.083 135.806C285.492 134.748 285.53 133.195 285.261 132.296L284.123 133.15Z" fill="#707070"/>
<path d="M287.745 132.889L288.829 132.075L286.877 129.474L291.213 130.286L292.514 129.31L287.893 128.458L288.339 123.972L287.038 124.948L286.633 129.149L284.762 126.656L283.678 127.47L287.745 132.889Z" fill="#707070"/>
<path d="M294.41 127.887L295.494 127.074L292.2 122.684L293.988 121.342L293.216 120.312L288.555 123.81L289.328 124.839L291.116 123.497L294.41 127.887Z" fill="#707070"/>
<path d="M134.862 204.74L136 203.886L130.307 196.299L129.169 197.153L129.535 197.641C129.697 197.857 129.67 198.047 129.453 198.21L128.207 199.145L129.02 200.229L130.592 199.049L134.862 204.74Z" fill="black"/>
<path d="M186.036 167.414L191.021 163.673L190.208 162.589L186.902 165.069L186.862 165.015L187.389 161.316C187.527 160.348 187.619 159.364 186.928 158.443C185.862 157.023 184.174 156.783 182.7 157.889C181.237 158.987 180.98 160.789 182.118 162.306L183.256 161.452C182.606 160.585 182.755 159.542 183.513 158.973C184.283 158.395 185.117 158.514 185.736 159.338C186.142 159.88 186.164 160.27 186.067 160.953L185.304 166.438L186.036 167.414Z" fill="white"/>
<path d="M265.699 104.373C266.643 105.631 268.437 105.877 270.008 104.698C271.526 103.559 271.823 101.811 270.888 100.564C270.4 99.9141 269.771 99.7083 269.275 99.657C268.969 99.6327 268.685 99.6598 268.395 99.725L268.354 99.6708C268.487 99.4187 268.571 99.1693 268.619 98.8956C268.695 98.4322 268.673 97.8387 268.218 97.2317C267.331 96.0504 265.627 95.7879 264.153 96.894C262.624 98.0408 262.4 99.7509 263.286 100.932L264.424 100.078C263.969 99.4714 264.142 98.596 264.966 97.9778C265.79 97.3597 266.624 97.4788 267.08 98.0857C267.568 98.736 267.446 99.5897 266.579 100.24L266.091 100.606L266.864 101.636L267.352 101.27C268.273 100.579 269.222 100.714 269.709 101.364C270.238 102.069 270.116 102.922 269.195 103.614C268.328 104.264 267.285 104.116 266.837 103.519L265.699 104.373Z" fill="black"/>
<path d="M307.101 70.4338L310.623 67.7906L311.843 69.4163L312.981 68.5624L311.762 66.9366L312.683 66.2453L311.91 65.2157L310.989 65.907L307.288 60.9756L305.5 62.3175L306.41 69.5126L307.101 70.4338ZM307.683 68.3876L307.643 68.3334L306.991 63.4012L307.208 63.2385L309.851 66.761L307.683 68.3876Z" fill="#222222"/>
</svg>
