<?xml version="1.0" encoding="utf-8"?>
<!-- Generator: Adobe Illustrator 24.1.0, SVG Export Plug-In . SVG Version: 6.00 Build 0)  -->
<svg version="1.1" id="Слой_1" xmlns="http://www.w3.org/2000/svg" xmlns:xlink="http://www.w3.org/1999/xlink" x="0px" y="0px"
	 viewBox="0 0 1842 888" style="enable-background:new 0 0 1842 888;" xml:space="preserve">
<style type="text/css">
	.st0{fill:#9A9A9B;}
	.st1{fill:#E81313;}
	.st2{fill:#156AE5;}
</style>
<rect class="st0" width="1842" height="888"/>
<polygon class="st1" points="122,428 122,161 462,161 462,290 500,290 500,491 357,491 357,424 "/>
<polygon class="st2" points="736,346 500,346 500,290 462,290 462,161 510,161 512,107 736,107 "/>
<polygon class="st1" points="736,107 721.7439575,107 721.7439575,59 972,59 972,335 891,335 891,346 736,346 "/>
<polygon class="st2" points="972,59 1100,59 1100,102 1275,102 1275,384 1212,384 1212,437 1134,437 1134,330 972,330 "/>
<polygon class="st1" points="1509,144 1275,144 1275,384 1212,384 1212,455 1646,455 1646,447 1654,447 1654,205 1510,205 "/>
<polygon class="st2" points="1327.2473145,455 1327,509 1270,509 1270,588 1330,588 1330,762 1316,762 1316,828 1721,828 1721,439 
	1654,439 1654,447 1646,447 1646,455 "/>
<polygon class="st1" points="1270,516.6000366 1234,517 1234,507 1082,507 1082,691 1068,691 1068,731 1194,731 1194,765 1316,765 
	1316,762 1330,762 1330,588 1270,588 "/>
<polygon class="st2" points="500,398.141571 787,398.141571 787,643 631,643 631,549 490,549 490,491 500,491 "/>
</svg>
