<svg width="70" height="70" viewBox="0 0 70 70" fill="none" xmlns="http://www.w3.org/2000/svg">
<rect width="70" height="70" fill="#F26522"/>
<path fill-rule="evenodd" clip-rule="evenodd" d="M35.0007 25.9636C35.0007 23.5625 36.0813 21.0259 37.7769 19.3196L45.9992 11V17.9417C45.9992 20.3061 44.8751 23.1727 43.235 24.8244L35.0007 33.1536V25.9636ZM46 59L37.7278 50.7079C36.0884 49.0561 33.2411 47.9242 30.8932 47.9242H24L32.2618 56.2051C33.9567 57.9126 36.4747 59 38.859 59H46ZM30.2496 43.0599L35 47.9242V36.8484C35 34.6952 33.8355 32.0615 32.3624 30.5799L27.6674 25.7699V36.8484C27.6674 38.9752 28.835 41.6346 30.2496 43.0599Z" fill="white"/>
</svg>
