<svg width="70" height="70" viewBox="0 0 70 70" fill="none" xmlns="http://www.w3.org/2000/svg">
<rect width="70" height="70" fill="#384249"/>
<path d="M28.2529 53.3547H14.6988V47.7094H28.2229V53.3547H28.2529ZM30.9817 44.8719H12V59H14.6988V56.1626H30.9218V44.8719H30.9817ZM14.6988 19.4828L20.1265 13.8374V33.6108H14.6988C14.6988 33.5813 14.6988 19.4828 14.6988 19.4828ZM12 36.4187H22.7953V11H18.7771L12 18.064V36.4187ZM28.2529 13.8374H33.6806V33.6108H28.2529V13.8374ZM25.5541 36.4187H36.3494V11H25.5541V36.4187ZM55.2712 36.4187H57.97V11H53.8918V11.0296L49.8136 15.2562V11H45.7353L39.0183 18.064V36.4187H41.7171V19.4828L47.1447 13.8374V36.4187H49.8435V19.4828L55.2712 13.8374V36.4187ZM12 42.064H58V39.2266H12V42.064ZM47.1747 47.7094H55.2712V53.3547H47.1747V47.7094ZM44.4759 53.3547H36.3494V47.7094H44.4759V53.3547ZM47.1747 56.1626H58V44.8719H33.6806V56.1626H44.4759V59H47.1747V56.1626Z" fill="white"/>
</svg>
