<svg width="70" height="70" viewBox="0 0 70 70" fill="none" xmlns="http://www.w3.org/2000/svg">
<rect width="70" height="70" fill="#0D356C"/>
<path d="M11.2505 35.0153C11.2505 48.0998 21.9118 58.7509 35.0163 58.7509C48.0954 58.7509 58.7495 48.0951 58.7495 35.0153C58.7495 21.9096 48.1002 11.2514 35.0163 11.2514C21.9058 11.2514 11.2505 21.906 11.2505 35.0153ZM10 35.0153C10 21.2145 21.2167 10 35.0163 10C48.7857 10 60 21.2133 60 35.0141C60 48.7867 48.7845 60 35.0151 60C21.2179 60.0012 10 48.7867 10 35.0165V35.0153Z" fill="white"/>
<path d="M27.6408 19.179C26.7781 19.5606 25.9585 20.0304 25.1953 20.5807C31.133 17.9101 38.383 18.0843 42.273 19.8366C43.4964 20.4101 44.3184 20.7584 44.6909 21.4433C40.6531 20.3509 38.919 20.153 35.5398 20.2371C30.7329 20.3248 24.3397 22.2454 21.8954 23.7134L20.821 25.0642C24.3397 22.9623 30.9059 21.589 34.5459 21.4729C38.6102 21.4172 41.7623 21.7904 44.6633 22.8521C44.4902 23.5973 44.1213 23.9706 43.4964 24.3461C31.9009 22.3058 25.0499 24.7158 18.8562 28.7929L18.4031 30.1412C25.3095 25.3497 33.7756 24.031 41.9342 25.4646C39.0079 26.499 35.5121 26.7277 32.5847 27.4125C30.0851 27.9884 28.7488 28.1625 25.42 29.2846C22.0432 30.4043 20.0483 31.5512 18.8009 33.0168C18.2037 33.7088 17.7482 34.5097 17.6328 35.3687C17.58 35.883 17.6076 36.3474 17.7794 36.8071C17.9164 37.21 18.2301 37.6105 18.5726 38.0121C18.176 38.6993 17.8311 39.5939 18.4031 40.6271C18.6579 41.1129 19.3116 41.601 19.9402 42.0643L19.7635 42.5761C19.6794 43.1828 19.5953 43.8984 19.9942 44.5003C20.6732 45.5916 21.4976 46.312 22.8063 47.0003C23.0058 47.8913 23.3158 48.607 23.9984 49.2421C25.4477 50.5892 28.6899 53.1734 34.457 53.5762C38.7784 53.8653 41.8753 52.543 43.0421 51.9672L44.4626 51.2231C42.0471 52.1971 37.9853 52.7717 34.6565 52.485C29.8256 52.0821 25.509 48.8961 24.9682 47.9767C25.1364 48.0892 25.3647 48.1769 25.5606 48.2634C31.2184 51.0193 38.5212 52.5146 47.8719 48.6662L48.6434 47.9198C40.1412 50.5892 32.6989 50.5039 24.7098 46.2847C24.7975 45.8819 24.9682 45.5323 25.3347 45.2515C27.3788 46.1638 29.3425 46.9162 31.7303 47.4008C34.5159 47.9198 37.6969 48.0359 40.3142 47.9198C42.958 47.8049 48.1855 46.4838 50.6587 45.1638C50.8846 44.9624 50.9976 44.6212 51.2247 44.389C46.3974 46.1638 40.6531 47.0003 37.1885 46.7397C33.8057 46.4838 30.7953 46.0797 26.8152 44.2432C27.5807 43.9292 28.3775 43.6698 29.1718 43.4375C31.7868 44.2432 34.457 44.729 37.6115 44.8747C40.7408 45.0169 48.0425 43.8439 52.6451 41.0311C52.7905 40.6283 52.9311 40.1946 52.9311 40.1946C52.9311 40.1946 46.5368 43.6425 39.2916 43.6425C35.9087 43.6425 33.8345 43.1532 32.3011 42.7799C35.7092 42.1484 40.0018 41.6306 44.8303 40.3972C47.2734 39.7633 50.2873 38.3261 51.6525 37.1223C52.817 36.0571 53.7279 34.6792 53.4166 33.2775C53.3554 32.8995 52.8458 32.0145 52.2197 31.6957C52.817 30.9208 52.7605 30.2597 52.6776 29.6898C52.6175 29.2514 52.4192 28.768 52.1669 28.3391C51.7679 27.8166 51.3953 27.4125 50.6274 26.9564C50.7453 26.354 50.6657 25.7304 50.4003 25.1755C49.8043 24.1424 48.7263 23.2537 46.8793 22.3058C46.7939 21.9314 46.5632 21.4433 46.169 20.9563C43.8401 18.6305 40.0294 17.5108 36.8172 17.4515C36.6369 17.448 36.4579 17.4468 36.2824 17.4468C32.5246 17.4468 29.5083 18.2999 27.6408 19.179ZM45.8277 24.9208C46.1138 24.6044 46.5368 24.1163 46.6485 23.7134C47.4477 24.2312 48.3562 25.0061 48.4679 25.8106C47.6183 25.4907 46.7086 25.1518 45.8277 24.922V24.9208ZM46.5368 28.422C45.1752 28.0464 43.9819 27.5867 42.386 27.3035C43.3558 26.9267 44.0059 26.5274 44.5779 26.0665C45.8518 26.409 47.0463 26.8426 48.0185 27.2715C47.8503 27.5215 46.8769 28.4315 46.5812 28.4315C46.5658 28.4322 46.5505 28.4289 46.5368 28.422ZM49.0099 29.4268C49.3776 29.1388 49.7201 28.826 50.0338 28.4504C50.7993 29.1104 51.0264 29.5701 50.6587 30.2881C50.1492 29.9161 49.6048 29.7135 49.0099 29.4268ZM19.826 36.5488C17.7194 33.6199 25.0223 31.5251 26.4175 31.0926C29.9686 30.0263 34.1205 29.2277 37.8723 28.768C40.4524 28.4504 41.8212 28.7407 44.2667 29.3995C37.9853 31.0938 31.7868 31.6353 25.8755 33.3889C21.1094 34.787 19.8452 36.5488 19.826 36.5488ZM21.3846 37.9541C23.6018 36.0571 28.1227 34.9967 29.7727 34.6235C35.0278 33.4742 39.9165 32.7573 41.9342 32.2419C44.3797 31.6353 46.0849 31.0642 47.2734 30.4907C47.3311 30.4042 49.2635 31.3498 49.463 31.5772C48.8104 32.1258 47.9043 32.5867 46.9069 32.928C43.923 34.0204 38.4948 35.1673 35.6263 35.6057C32.7265 36.0903 30.3062 36.4612 27.1 37.319C25.2494 37.8107 23.9984 38.3854 23.0887 38.9896C22.4073 38.5868 22.0095 38.473 21.3846 37.9541ZM25.509 40.2515C26.4439 39.8486 27.4678 39.5323 28.4592 39.2787C33.4632 38.037 37.8723 37.8107 43.953 36.1472C46.8793 35.3687 49.0099 34.5346 50.3474 33.505C50.5445 33.3296 50.744 33.1874 50.9435 33.0168C52.7052 35.7716 46.0849 37.8972 41.5628 38.8782C39.1988 39.3503 36.8301 39.799 34.457 40.2242C31.5056 40.7124 30.5346 40.9719 28.4892 41.5749C27.4678 41.1721 26.4439 40.7408 25.509 40.2515ZM20.1901 39.3901C20.6468 39.6804 20.9857 39.9114 21.5276 40.1946C21.3281 40.3664 21.071 40.5406 20.8739 40.7396C20.422 40.479 19.963 39.9102 20.1901 39.3889V39.3901ZM22.5515 42.0323C22.8363 41.774 23.204 41.5169 23.6018 41.2598C24.455 41.6626 25.3347 42.0311 26.1591 42.4067C25.6041 42.6113 25.0717 42.8713 24.5704 43.1828C23.8916 42.8089 23.2186 42.425 22.5515 42.0311V42.0323ZM21.8112 43.4375C22.2943 43.7551 22.7774 44.0122 23.2629 44.2728C23.0634 44.5608 22.9192 44.7871 22.8363 45.0773C22.1249 44.4731 21.7812 43.9849 21.8112 43.4375Z" fill="white"/>
</svg>
