<svg width="70" height="70" viewBox="0 0 70 70" fill="none" xmlns="http://www.w3.org/2000/svg">
<rect width="70" height="70" fill="#9ACA3C"/>
<g clip-path="url(#clip0)">
<path d="M47.0207 45.9976C43.6394 45.9976 40.258 45.9976 36.8766 45.9977C36.8106 45.9977 36.7446 45.9989 36.6787 45.9982C36.1613 45.9924 36.1763 45.9883 36.337 45.4577C36.5077 44.894 36.6295 44.3142 36.7758 43.7424C36.9234 43.1652 37.0531 42.5815 37.2304 42.0143C37.4319 41.3696 37.8309 41.0857 38.4693 41.0874C44.8199 41.1046 51.1705 41.0991 57.5211 41.0947C57.8421 41.0945 58.139 41.1377 58.4132 41.325C58.7691 41.5681 58.8805 41.9551 58.7943 42.4075C58.6574 43.1248 58.3972 43.8043 58.2461 44.5187C58.1638 44.908 58.0118 45.2884 57.9486 45.6901C57.9017 45.9879 57.6887 46.0007 57.4618 46.0001C56.4392 45.9975 55.4165 45.9991 54.3939 45.9991" fill="#FFCE54"/>
<path d="M60.4178 41.2978C60.2529 41.2979 60.088 41.2953 59.9231 41.2984C59.5681 41.3052 59.3209 41.2153 59.1848 40.7962C59.018 40.2825 58.5882 40.0396 58.0767 39.9788C57.9627 39.9652 57.8461 39.9752 57.7306 39.9752C51.0517 39.975 44.3728 39.9777 37.6939 39.9701C37.0753 39.9694 36.645 40.225 36.4305 40.827C36.3073 41.1726 36.0854 41.3057 35.7519 41.2991C35.4552 41.2932 35.1582 41.2978 34.8614 41.2978C24.7028 41.2977 14.5443 41.2969 4.3857 41.3002C4.02031 41.3003 3.65707 41.2881 3.30971 41.1725C2.39587 40.8685 1.93041 40.1364 2.00844 39.1369C2.03548 38.7905 2.1457 38.4655 2.27359 38.1456C3.28926 35.6056 4.30048 33.0637 5.31711 30.5241C5.98628 28.8525 7.53933 27.7654 9.26945 27.7652C28.1024 27.7638 46.9353 27.7646 65.7682 27.7636C66.3044 27.7636 66.8059 27.8567 67.269 28.1754C67.8758 28.5931 68.0237 29.2046 67.9971 29.8971C67.9838 30.2438 67.8668 30.5706 67.7389 30.8902C66.7105 33.4605 65.7088 36.043 64.6459 38.5977C63.9196 40.3434 62.5675 41.1981 60.7641 41.297C60.649 41.3033 60.5333 41.2978 60.4178 41.2978ZM37.5937 28.2723C34.4927 28.2723 31.3918 28.273 28.2909 28.2721C21.9736 28.2702 15.6563 28.2695 9.33906 28.2609C8.78817 28.2602 8.25448 28.3739 7.76584 28.5929C6.87927 28.9902 6.21014 29.6578 5.7961 30.5922C5.62642 30.9752 5.50282 31.3755 5.33396 31.7602C4.84279 32.8793 4.42401 34.0325 3.9473 35.1599C3.48235 36.2595 3.05522 37.3765 2.60999 38.4853C2.46622 38.8433 2.4157 39.2166 2.46121 39.5985C2.52903 40.1677 2.85185 40.5238 3.35695 40.7176C3.72139 40.8574 4.09963 40.8543 4.47975 40.8542C14.7886 40.8523 25.0975 40.8519 35.4064 40.8512C35.4559 40.8512 35.5061 40.8452 35.5547 40.8521C35.8129 40.8885 35.9674 40.8055 36.0789 40.527C36.2889 40.0029 36.7043 39.6998 37.2259 39.555C37.4529 39.492 37.685 39.5115 37.9152 39.5115C43.9026 39.5105 49.8899 39.5107 55.8773 39.5109C56.537 39.511 57.197 39.5019 57.8565 39.5167C58.5104 39.5314 59.1367 39.7342 59.4481 40.3523C59.6727 40.798 59.9376 40.8899 60.3435 40.8519C60.4908 40.8382 60.6405 40.8555 60.7886 40.8476C62.3721 40.7632 63.5245 39.9765 64.2273 38.4957C64.48 37.9633 64.6475 37.3904 64.8746 36.8427C65.6823 34.8949 66.4422 32.9254 67.2157 30.9622C67.3911 30.5171 67.534 30.0666 67.4947 29.5667C67.453 29.036 67.2236 28.6881 66.7591 28.4507C66.3944 28.2643 66.0259 28.2742 65.6503 28.2741C56.2981 28.2719 46.9459 28.2723 37.5937 28.2723Z" fill="#FBFDF8"/>
<path d="M56.7593 27.2288C54.3866 27.2288 52.014 27.2289 49.6413 27.2288C49.526 27.2288 49.4103 27.2342 49.2954 27.2266C49.0461 27.21 49.021 27.1569 49.0895 26.9073C49.2006 26.5026 49.4455 26.2941 49.8499 26.247C50.7633 26.1405 51.676 26.0242 52.5865 25.8928C53.5096 25.7595 54.4291 25.599 55.3513 25.4584C55.969 25.3643 56.5889 25.2861 57.2073 25.1973C58.0042 25.0828 58.8004 24.9629 59.5973 24.8489C60.2816 24.751 60.9672 24.663 61.651 24.5617C62.3666 24.4556 63.0822 24.3482 63.795 24.2238C64.2806 24.139 64.7821 24.1866 65.2575 24.0144C65.3978 23.9636 65.471 24.0512 65.4575 24.2113C65.4441 24.3699 65.3527 24.5003 65.3159 24.6459C65.128 25.3907 64.8961 26.1221 64.7019 26.8639C64.6211 27.1722 64.4894 27.238 64.2232 27.2318C63.6468 27.2183 63.0699 27.2276 62.4933 27.2276C60.5819 27.2276 58.6706 27.2276 56.7593 27.2276C56.7593 27.228 56.7593 27.2284 56.7593 27.2288Z" fill="#9ACA3C"/>
<path d="M39.6334 41.8032C39.9629 41.8032 40.2926 41.81 40.6218 41.8008C40.8364 41.7948 40.9047 41.8913 40.9082 42.1092C40.9118 42.3378 40.8269 42.4132 40.6184 42.4087C40.2067 42.3998 39.7945 42.4134 39.3829 42.4037C39.1535 42.3983 39.0496 42.4897 39.0552 42.7351C39.0604 42.9608 39.0767 43.1509 39.365 43.1454C39.6613 43.1397 39.9587 43.1404 40.254 43.1624C40.7735 43.2011 41.0966 43.5586 41.1185 44.0937C41.1431 44.6935 40.8809 45.0962 40.3642 45.1822C39.7598 45.2828 39.1473 45.2204 38.5383 45.2302C38.3762 45.2328 38.3548 45.126 38.355 44.9922C38.3565 44.0105 38.3581 43.0289 38.3557 42.0473C38.3553 41.8703 38.4325 41.8017 38.5955 41.8035C38.9414 41.8074 39.2874 41.8047 39.6334 41.8047C39.6334 41.8042 39.6334 41.8037 39.6334 41.8032ZM39.5611 44.6423C39.594 44.6423 39.6269 44.6427 39.6598 44.6422C40.1863 44.6348 40.3506 44.5308 40.3579 44.2005C40.3655 43.8584 40.1623 43.7093 39.6509 43.682C39.0778 43.6514 39.0061 43.7388 39.0558 44.355C39.0706 44.5388 39.1203 44.6507 39.3146 44.6422C39.3966 44.6386 39.479 44.6416 39.5611 44.6423Z" fill="black"/>
<path d="M48.7518 43.5125C48.7518 43.0644 48.7468 42.6161 48.7534 42.1681C48.7588 41.8108 48.7761 41.8146 49.1257 41.7977C49.3778 41.7855 49.5038 41.8628 49.4662 42.144C49.4572 42.2116 49.4571 42.2829 49.4667 42.3504C49.5016 42.5943 49.3415 42.9423 49.5979 43.0601C49.9079 43.2025 50.2782 43.1346 50.6212 43.0859C50.7417 43.0688 50.7516 42.9447 50.7535 42.8408C50.7583 42.5823 50.7642 42.3235 50.757 42.0653C50.7485 41.7597 50.955 41.8033 51.1313 41.8053C51.3044 41.8072 51.508 41.7535 51.5057 42.0637C51.4985 43.029 51.499 43.9943 51.5064 44.9595C51.5079 45.1605 51.4391 45.2444 51.2503 45.2324C51.1517 45.2262 51.0525 45.2298 50.9536 45.2296C50.8075 45.2293 50.7542 45.1498 50.7562 45.0017C50.7608 44.6743 50.7529 44.3467 50.7578 44.0193C50.7607 43.8267 50.6839 43.7327 50.4962 43.7355C50.2489 43.7392 50.0015 43.7405 49.7543 43.7355C49.5444 43.7312 49.4602 43.8347 49.4659 44.0497C49.4731 44.3253 49.4703 44.6013 49.466 44.877C49.4609 45.2046 49.3726 45.2839 49.0105 45.2977C48.7325 45.3083 48.75 45.1031 48.7503 44.9087C48.7512 44.4433 48.7506 43.9779 48.7506 43.5125C48.751 43.5125 48.7514 43.5125 48.7518 43.5125Z" fill="black"/>
<path d="M54.1505 43.484C54.1508 43.0189 54.1609 42.5536 54.1471 42.089C54.1385 41.8015 54.3011 41.7971 54.498 41.8012C54.6993 41.8054 54.9069 41.7722 54.8895 42.1004C54.8749 42.3751 54.8847 42.6514 54.8894 42.9269C54.8908 43.0053 54.8672 43.1093 54.98 43.1333C55.056 43.1496 55.0943 43.0838 55.1351 43.0316C55.3848 42.7126 55.6324 42.3918 55.8847 42.075C56.0688 41.8438 56.5596 41.6968 56.82 41.8059C56.9797 41.8728 56.821 41.9389 56.792 41.9751C56.4959 42.344 56.2061 42.7206 55.8846 43.0644C55.6848 43.278 55.6551 43.4288 55.8522 43.6674C56.2063 44.0963 56.5264 44.5557 56.8643 44.9993C56.9276 45.0824 57.0083 45.1631 56.9458 45.27C56.8971 45.3533 56.7972 45.2961 56.7209 45.307C56.3594 45.3584 56.0954 45.2323 55.8956 44.894C55.6804 44.5296 55.4203 44.1939 55.1756 43.8489C55.1211 43.7721 55.0755 43.6397 54.9558 43.6922C54.8459 43.7404 54.8925 43.8711 54.8908 43.966C54.8851 44.2931 54.879 44.6208 54.8905 44.9475C54.8997 45.2125 54.8006 45.3237 54.5428 45.3128C54.2343 45.2997 54.1579 45.2468 54.1524 44.9307C54.144 44.4486 54.1502 43.9662 54.1505 43.484Z" fill="black"/>
<path d="M44.8238 41.8178C45.1721 41.6998 45.2903 41.9331 45.3896 42.2117C45.7163 43.1273 46.042 44.0435 46.3833 44.9532C46.4638 45.1677 46.423 45.2145 46.2155 45.2219C45.7608 45.238 45.7526 45.2513 45.562 44.812C45.4909 44.6479 45.405 44.5686 45.2311 44.5787C45.0508 44.5891 44.8679 44.5963 44.6888 44.5771C44.3694 44.5428 44.1505 44.6229 44.0758 44.9949C44.038 45.1833 43.4433 45.3238 43.3239 45.1854C43.2481 45.0975 43.3179 44.9886 43.3482 44.9025C43.5579 44.3071 43.7782 43.7158 43.9931 43.1224C44.1092 42.8017 44.2277 42.4817 44.3332 42.1572C44.4153 41.9048 44.5141 41.6987 44.8238 41.8178ZM44.8122 44.0309C45.3287 44.037 45.3293 44.0368 45.1561 43.5059C45.0882 43.2977 45.0201 43.0896 44.9449 42.8842C44.9293 42.8415 44.8822 42.8114 44.8496 42.7754C44.8205 42.8109 44.7795 42.8415 44.7642 42.8826C44.6759 43.1191 44.5877 43.3559 44.5107 43.5966C44.3842 43.9926 44.4103 44.0261 44.8122 44.0309Z" fill="black"/>
<path d="M37.593 28.2722C46.9452 28.2722 56.2974 28.2718 65.6496 28.274C66.0253 28.2741 66.3937 28.2642 66.7584 28.4506C67.223 28.688 67.4523 29.0359 67.494 29.5666C67.5333 30.0665 67.3904 30.517 67.2151 30.9621C66.4416 32.9253 65.6816 34.8948 64.874 36.8426C64.6469 37.3903 64.4793 37.9632 64.2266 38.4956C63.5239 39.9764 62.3715 40.7631 60.7879 40.8475C60.6399 40.8554 60.4901 40.8381 60.3428 40.8518C59.9369 40.8898 59.672 40.7979 59.4475 40.3522C59.136 39.7341 58.5098 39.5313 57.8558 39.5166C57.1964 39.5018 56.5364 39.5109 55.8766 39.5108C49.8893 39.5106 43.9019 39.5104 37.9146 39.5114C37.6843 39.5114 37.4522 39.4919 37.2253 39.5549C36.7036 39.6997 36.2882 40.0028 36.0783 40.5269C35.9667 40.8054 35.8122 40.8884 35.5541 40.852C35.5055 40.8451 35.4552 40.8511 35.4057 40.8511C25.0969 40.8518 14.788 40.8522 4.47909 40.8541C4.09897 40.8542 3.72072 40.8573 3.35629 40.7175C2.85119 40.5237 2.52837 40.1676 2.46055 39.5984C2.41504 39.2165 2.46556 38.8432 2.60933 38.4852C3.05456 37.3764 3.48168 36.2594 3.94664 35.1598C4.42335 34.0324 4.84213 32.8792 5.3333 31.7601C5.50216 31.3754 5.62576 30.9751 5.79544 30.5921C6.20948 29.6577 6.87861 28.9901 7.76518 28.5928C8.25382 28.3738 8.78751 28.2601 9.3384 28.2608C15.6557 28.2694 21.973 28.2701 28.2903 28.272C31.3912 28.2729 34.4921 28.2722 37.593 28.2722Z" fill="#9ACA3C"/>
<path d="M26.3306 37.9598C24.9459 37.96 23.5613 37.9618 22.1766 37.9587C21.8109 37.9579 21.7835 37.9166 21.8697 37.5449C21.8882 37.4651 21.9248 37.3881 21.963 37.3154C22.4521 36.3858 22.8224 35.4007 23.2321 34.4327C23.6091 33.542 23.9922 32.6517 24.3837 31.7665C24.4798 31.5492 24.5982 31.3393 24.6667 31.113C24.7337 30.8916 24.851 30.8165 25.0628 30.8204C25.5737 30.8298 26.0849 30.8174 26.5957 30.8263C26.8931 30.8315 26.8991 30.852 26.7679 31.1568C26.114 32.6755 25.4591 34.1937 24.8047 35.7121C24.7643 35.8059 24.7235 35.8996 24.6856 35.9945C24.6308 36.1319 24.6434 36.2313 24.817 36.2305C25.1632 36.2288 25.5095 36.2196 25.8554 36.2269C26.1385 36.233 26.1444 35.9743 26.2165 35.8073C26.7094 34.6657 27.1857 33.5163 27.6694 32.3704C27.8547 31.9311 28.0562 31.4989 28.228 31.054C28.2955 30.8791 28.3865 30.8188 28.5566 30.8207C29.1005 30.8269 29.6445 30.823 30.1884 30.8235C30.3816 30.8237 30.451 30.8644 30.3492 31.0959C29.678 32.6223 29.0231 34.1565 28.3627 35.6881C28.3289 35.7665 28.2896 35.8426 28.2605 35.9228C28.1598 36.1997 28.1686 36.2145 28.437 36.2279C28.5192 36.2321 28.6022 36.2316 28.6842 36.2253C28.9935 36.2014 29.3647 36.354 29.5963 36.1516C29.8014 35.9724 29.8987 35.624 29.9798 35.331C30.1541 34.7011 30.5496 34.1758 30.7274 33.5554C30.9575 32.7522 31.4718 32.0793 31.6514 31.2531C31.723 30.9237 31.8938 30.8246 32.2242 30.8219C32.7351 30.8178 33.2461 30.8223 33.7571 30.8216C33.9566 30.8213 34.0137 30.8604 33.91 31.0901C33.5246 31.9444 33.1681 32.813 32.7981 33.6751C32.2741 34.8958 31.7477 36.1154 31.2222 37.3355C31.1818 37.4295 31.1295 37.5196 31.1018 37.6175C31.0235 37.8942 30.853 37.9684 30.5834 37.9659C29.1659 37.9527 27.7482 37.9597 26.3306 37.9598Z" fill="#FBFDF8"/>
<path d="M56.7821 37.9615C55.9398 37.9615 55.363 37.9565 54.7863 37.9643C54.596 37.9668 54.544 37.9317 54.5755 37.7044C54.6344 37.279 54.9091 36.9708 55.0576 36.5956C55.4459 35.6145 55.8952 34.6599 56.2881 33.6807C56.6287 32.8317 56.9954 31.9956 57.3455 31.1516C57.4588 30.8783 57.6094 30.8092 57.8714 30.812C59.1072 30.8249 60.3432 30.8204 61.5791 30.8235C61.6943 30.8237 61.8127 30.817 61.9242 30.8411C62.7593 31.0215 63.1289 31.5992 62.8143 32.4705C62.5658 33.1589 62.1138 33.6656 61.4635 33.9678C61.3884 34.0028 61.3165 34.0454 61.2436 34.0854C61.121 34.1528 61.113 34.2117 61.2387 34.2976C61.8848 34.739 62.0184 35.1408 61.6689 35.8991C61.1495 37.026 60.3001 37.7085 59.0818 37.867C58.2274 37.9782 57.3724 37.9562 56.7821 37.9615ZM58.1014 36.4374C58.1014 36.4326 58.1014 36.4278 58.1014 36.423C58.2984 36.423 58.4967 36.4384 58.6921 36.4198C59.0952 36.3813 59.3973 36.1652 59.5945 35.7963C59.8229 35.3692 59.6906 35.0413 59.2376 34.9933C58.8471 34.952 58.4503 34.9764 58.0562 34.9745C57.953 34.9739 57.8536 35.0064 57.8084 35.1101C57.6455 35.4837 57.4879 35.8599 57.3327 36.2372C57.2812 36.3624 57.3326 36.4345 57.4609 36.4365C57.6744 36.4399 57.8879 36.4374 58.1014 36.4374ZM59.1404 33.641C59.1404 33.6351 59.1404 33.6291 59.1404 33.6232C59.3205 33.6232 59.5035 33.6446 59.6802 33.619C60.1219 33.5548 60.4346 33.3038 60.5706 32.8508C60.6636 32.5412 60.5491 32.3259 60.2459 32.2968C59.8558 32.2594 59.4317 32.1791 59.0786 32.3277C58.8068 32.442 58.7901 32.8721 58.6438 33.1529C58.6203 33.198 58.5967 33.2436 58.5787 33.2912C58.4606 33.6022 58.4856 33.6417 58.7962 33.6411C58.9109 33.6408 59.0256 33.641 59.1404 33.641Z" fill="#FBFDF8"/>
<path d="M45.0493 37.9624C44.8145 37.9405 44.5013 38.0018 44.1919 37.935C44.1904 37.6148 44.3962 37.3728 44.4839 37.087C44.7141 36.3369 45.1216 35.671 45.4006 34.9432C45.6688 34.2436 45.9817 33.5628 46.2774 32.8749C46.3545 32.6955 46.3536 32.5752 46.1181 32.5839C45.97 32.5894 45.8215 32.5843 45.6731 32.5848C44.7055 32.5877 44.6996 32.5852 44.3258 33.5152C43.9422 34.4694 43.5297 35.4083 43.0701 36.3255C42.5712 37.3213 41.7964 37.8766 40.7245 37.954C40.331 37.9825 39.9341 37.9592 39.5388 37.9621C39.3251 37.9637 39.2756 37.8557 39.3608 37.6684C39.4666 37.4359 39.5377 37.1892 39.6322 36.9538C39.7478 36.6658 39.9165 36.4341 40.2901 36.462C40.8094 36.5008 41.1102 36.1468 41.3007 35.702C41.8493 34.4206 42.3965 33.1378 42.9111 31.8412C43.3136 30.8269 43.2916 30.8181 44.3333 30.8186C45.7674 30.8192 47.2016 30.8186 48.6358 30.8186C48.7512 30.8186 48.8668 30.8139 48.9819 30.8208C49.2553 30.8371 49.2607 30.8496 49.1472 31.1129C48.7838 31.9558 48.4195 32.7984 48.0576 33.642C47.4996 34.9423 46.9341 36.2391 46.3929 37.547C46.2628 37.8611 46.1041 38.0147 45.7674 37.9679C45.5568 37.9386 45.3395 37.9624 45.0493 37.9624Z" fill="#FBFDF8"/>
<path d="M17.1528 38.0659C16.7336 38.0978 16.2635 38.0287 15.8102 37.8523C15.1998 37.6148 14.8523 37.1693 14.7876 36.4764C14.6948 35.4824 15.0564 34.6224 15.4893 33.7849C15.9003 32.9899 16.4589 32.3144 17.1551 31.7827C18.2729 30.9292 19.5337 30.586 20.9099 30.7584C21.1506 30.7885 21.3972 30.8141 21.6336 30.9078C22.5446 31.2687 22.9096 32.1608 22.6738 33.1302C22.2229 34.9847 21.3316 36.5429 19.6361 37.4677C18.8763 37.8822 18.0739 38.0912 17.1528 38.0659ZM17.8704 36.4404C18.4866 36.4607 18.9702 36.1899 19.3779 35.7209C19.9183 35.0993 20.2451 34.3652 20.4558 33.5671C20.6456 32.8483 20.3047 32.3835 19.5903 32.3824C19.0922 32.3816 18.6497 32.5687 18.2867 32.9093C17.5798 33.5725 17.1651 34.429 16.9846 35.3869C16.8451 36.1271 17.1436 36.4369 17.8704 36.4404Z" fill="#FBFDF8"/>
<path d="M11.8767 37.9562C11.6293 37.9562 11.3819 37.959 11.1346 37.9555C10.7233 37.9496 10.7175 37.9481 10.7018 37.5359C10.6802 36.9676 10.6709 36.3988 10.6511 35.8305C10.6463 35.6938 10.6412 35.5502 10.5984 35.4238C10.5554 35.2969 10.4717 35.1811 10.3185 35.1638C10.1496 35.1447 10.0969 35.2628 10.0399 35.3971C9.7867 35.9945 9.4722 36.5706 9.28404 37.189C9.0901 37.8264 8.75339 38.0583 8.13568 37.9642C7.82891 37.9175 7.51008 37.9614 7.19684 37.9559C6.88636 37.9505 6.85848 37.9042 6.96641 37.5923C7.01573 37.4498 7.05973 37.3018 7.13192 37.172C7.53679 36.4439 7.78765 35.6432 8.12576 34.8871C8.6725 33.6644 9.18836 32.4279 9.72187 31.1994C9.83341 30.9426 9.96473 30.7946 10.271 30.8173C10.7305 30.8514 11.194 30.8214 11.6556 30.831C11.9583 30.8373 11.9738 30.8664 11.8506 31.1605C11.5544 31.8678 11.2514 32.572 10.9536 33.2785C10.9178 33.3636 10.8042 33.4619 10.924 33.5452C11.0086 33.6039 11.1176 33.5388 11.2 33.4876C11.3858 33.3721 11.5351 33.2095 11.6769 33.041C12.0558 32.591 12.434 32.1405 12.8106 31.6883C13.2467 31.1646 13.8279 30.935 14.4588 30.8473C14.8489 30.7931 15.2489 30.8187 15.6444 30.8057C15.8221 30.7999 15.8631 30.8609 15.817 31.0523C15.7171 31.4677 15.4479 31.7939 15.3055 32.1856C15.2646 32.2979 15.1374 32.2737 15.0414 32.2789C14.4773 32.3096 14.0448 32.5972 13.6874 33.0324C13.3121 33.4893 12.9472 33.9585 12.3926 34.1982C12.2572 34.2568 12.2639 34.3318 12.3768 34.4127C12.7866 34.7063 12.8541 35.152 12.9164 35.6261C12.9998 36.2607 13.0074 36.8961 13.0267 37.5324C13.0394 37.9471 13.0324 37.9492 12.6188 37.9555C12.3715 37.9593 12.1241 37.9562 11.8767 37.9562Z" fill="#FBFDF8"/>
<path d="M50.4406 37.9629C49.6325 37.9629 48.8243 37.9638 48.0162 37.9625C47.5696 37.9618 47.5466 37.9278 47.7199 37.5213C48.0731 36.6933 48.4416 35.8722 48.7793 35.0374C49.1107 34.2178 49.4721 33.4125 49.7837 32.5821C49.9772 32.0666 50.2394 31.5632 50.4469 31.0434C50.5274 30.8418 50.668 30.8142 50.8423 30.8152C51.2711 30.8179 51.6999 30.8171 52.1287 30.8172C53.3822 30.8174 54.6357 30.8149 55.8891 30.8189C56.2631 30.8201 56.2698 30.8374 56.1163 31.1844C56.0198 31.4023 55.8793 31.6077 55.8261 31.8359C55.7171 32.3031 55.4388 32.3898 55.0242 32.3769C54.1509 32.3496 53.2759 32.3849 52.4023 32.363C52.1207 32.356 51.9733 32.4633 51.88 32.7166C51.5597 33.5865 51.3827 33.5093 52.351 33.5077C53.0107 33.5066 53.6704 33.504 54.3301 33.5049C54.8465 33.5056 54.8449 33.5068 54.6385 33.9807C54.55 34.1838 54.4564 34.3862 54.3888 34.5972C54.3025 34.8662 54.146 34.9627 53.872 34.9572C53.0312 34.9402 52.1896 34.9617 51.3489 34.9423C51.0421 34.9352 50.857 35.0222 50.7638 35.3448C50.6981 35.5725 50.5692 35.7797 50.4767 35.9998C50.3368 36.3325 50.3657 36.3866 50.7116 36.3888C51.5857 36.3942 52.4598 36.3893 53.334 36.3901C53.983 36.3907 53.992 36.3963 53.6997 37.0242C53.5579 37.3289 53.5267 37.743 53.2463 37.9111C52.9876 38.0662 52.633 37.9559 52.3208 37.959C51.6941 37.9651 51.0673 37.9608 50.4406 37.9608C50.4406 37.9615 50.4406 37.9622 50.4406 37.9629Z" fill="#FBFDF8"/>
<path d="M35.2449 37.9615C34.4038 37.9615 33.5626 37.9652 32.7216 37.9596C32.4101 37.9575 32.3903 37.9234 32.5075 37.647C33.2325 35.9365 33.952 34.2234 34.6915 32.5198C34.8999 32.0397 35.0101 31.5177 35.2878 31.067C35.3975 30.889 35.5125 30.8098 35.7209 30.811C37.4031 30.8199 39.0853 30.8149 40.7675 30.8189C41.0876 30.8196 41.0894 30.8303 40.9574 31.1415C40.8441 31.4086 40.6932 31.6638 40.6178 31.9416C40.5144 32.3227 40.2843 32.3822 39.9518 32.3746C39.1111 32.3552 38.268 32.3995 37.4293 32.3528C36.9849 32.3281 36.7814 32.5071 36.6283 32.9067C36.3955 33.5141 36.3771 33.5076 36.9843 33.5076C37.7759 33.5077 38.5675 33.5069 39.3591 33.5037C39.562 33.5029 39.681 33.5293 39.5527 33.7921C39.3965 34.1119 39.268 34.4474 39.142 34.7821C39.0666 34.9826 38.9126 34.9475 38.7702 34.9479C37.9786 34.9502 37.186 34.9723 36.3957 34.9386C35.9453 34.9193 35.6362 35.0093 35.52 35.5211C35.4679 35.7501 35.3272 35.9563 35.2346 36.1764C35.1838 36.2971 35.2293 36.3778 35.3587 36.3861C35.4737 36.3934 35.5893 36.3902 35.7047 36.3901C36.6118 36.3899 37.5189 36.3858 38.4259 36.3905C38.7878 36.3924 38.7949 36.4129 38.6454 36.7687C38.5265 37.0515 38.3996 37.3308 38.2888 37.6169C38.1916 37.8681 38.0506 37.9782 37.768 37.9701C36.9275 37.946 36.086 37.9615 35.2449 37.9615Z" fill="#FBFDF8"/>
</g>
<defs>
<clipPath id="clip0">
<rect x="2" y="24" width="66" height="22" fill="white"/>
</clipPath>
</defs>
</svg>
