<svg width="70" height="70" viewBox="0 0 70 70" fill="none" xmlns="http://www.w3.org/2000/svg">
<rect width="70" height="70" fill="#FFED00"/>
<path fill-rule="evenodd" clip-rule="evenodd" d="M35.5 41.2959L19.9238 57L13.7437 50.7761L29.3215 35.0665L26.0719 31.7874V25.3135L23.8151 23.0354V28.6814L21.8507 30.663L13.9535 22.6973L12 24.6663C12.014 23.1809 12.308 18.882 15.9241 15.2978C19.8263 11.5123 24.0405 13.2179 25.4816 14.6727L33.375 22.6344L31.3615 24.6624L35.5 28.8371L39.6377 24.6624L37.625 22.6344L45.5168 14.6727C46.958 13.2179 51.1721 11.5123 55.0744 15.2978C58.6912 18.882 58.9852 23.1809 59 24.6663L57.0465 22.6973L49.1485 30.663L47.1849 28.6814V23.0354L44.9265 25.3135V31.7874L41.677 35.0665L57.2555 50.7761L51.0762 57L35.5 41.2959Z" fill="black"/>
</svg>
