<svg width="70" height="70" viewBox="0 0 70 70" fill="none" xmlns="http://www.w3.org/2000/svg">
<rect width="70" height="70" fill="#245F34"/>
<path d="M27.9141 35.7759L32.7203 31.0516V27.8472L27.9141 32.5451V35.7759Z" fill="#FFCB05"/>
<path d="M27.9141 23.8153L32.7203 19.0901V16.064L27.9141 20.7646V23.8153Z" fill="#FFCB05"/>
<path d="M27.9141 27.7734L32.7203 23.0491V20.0239L27.9141 24.7227V27.7734Z" fill="#FFCB05"/>
<path d="M26.5386 16.1044L25.8997 15.481V8H25.1734V14.773L24.5391 14.1496V8H23.8146V13.4424L23.1758 12.819V8H22.4531V15.1361L27.2611 19.8604V8H26.5386V16.1044Z" fill="#FFCB05"/>
<path d="M27.9141 31.7295L32.7203 27.0062V23.981L27.9141 28.6798V31.7295Z" fill="#FFCB05"/>
<path d="M22.4531 31.0516L27.2611 35.776V32.5452L22.4531 27.8472V31.0516Z" fill="#FFCB05"/>
<path d="M31.9986 12.819L31.3624 13.4415V8H30.6344V14.1505L29.9982 14.7721V8H29.2765V15.4783L28.6367 16.1026V8H27.9141V19.8595L32.7203 15.1352V8H31.9986V12.819Z" fill="#FFCB05"/>
<path d="M22.4531 19.092L27.2611 23.8173V20.7658L22.4531 16.0669V19.092Z" fill="#FFCB05"/>
<path d="M22.4531 23.0491L27.2611 27.7734V24.7228L22.4531 20.0239V23.0491Z" fill="#FFCB05"/>
<path d="M22.4531 27.0052L27.2611 31.7286V28.6789L22.4531 23.981V27.0052Z" fill="#FFCB05"/>
<path d="M38.5718 32.4393C38.5718 33.1556 37.9884 33.7371 37.2703 33.7371C36.5568 33.7371 35.9734 33.1556 35.9734 32.4393C35.9734 32.1763 36.0508 31.9297 36.1864 31.7249L36.5504 31.1142C36.3265 30.9167 36.1837 30.6273 36.1837 30.3051C36.1837 29.9821 36.3265 29.6927 36.5504 29.4951L36.1864 28.8827C36.0508 28.6788 35.9734 28.4349 35.9734 28.17C35.9734 27.4547 36.5568 26.8723 37.2703 26.8723C37.9884 26.8723 38.5718 27.4547 38.5718 28.17C38.5718 28.7006 37.9611 29.963 37.9611 29.963V30.6464C37.9611 30.6464 38.5718 31.9078 38.5718 32.4393ZM51.0975 29.5006H39.9133H39.4054C39.6493 29.1156 39.7931 28.6624 39.7931 28.17C39.7931 26.7803 38.6628 25.6509 37.2703 25.6509C35.8806 25.6509 34.7539 26.7803 34.7539 28.17C34.7539 28.7189 34.9304 29.2185 35.2244 29.6307C35.0069 29.7764 34.8604 30.0221 34.8604 30.3051C34.8604 30.5873 35.0069 30.8339 35.2244 30.9768C34.9304 31.39 34.7539 31.8914 34.7539 32.4393C34.7539 33.83 35.8806 34.9585 37.2703 34.9585C38.6628 34.9585 39.7931 33.83 39.7931 32.4393C39.7931 31.9488 39.6493 31.4947 39.4054 31.1088H41.5205H48.1032V31.6357H47.245V32.3774H48.1032V33.1474H47.245V34.5617H48.1032V33.9219H49.3765V34.5617H50.2338V33.1474H49.3765V32.3774H50.2338V31.6357H49.3765V31.1088H51.0975C51.4297 31.1088 51.7036 30.8303 51.7036 30.4917V30.1177C51.7036 29.78 51.4297 29.5006 51.0975 29.5006Z" fill="#FFCB05"/>
<path d="M18.0823 27.9712V31.1102C18.0823 34.1126 19.39 36.0393 20.1418 36.7919C20.5823 37.2233 25.0536 41.6218 25.1173 41.6847C26.508 43.0425 26.751 43.4939 27.0595 44.2657V40.7864C27.0595 37.6875 25.4905 36.4861 24.6823 35.698C22.7993 33.8587 21.5361 32.651 20.5204 31.6381C18.5919 29.7087 18.0823 27.9712 18.0823 27.9712Z" fill="white"/>
<path d="M24.6823 43.4706C22.7984 41.6277 21.5361 40.4191 20.5204 39.4071C18.5919 37.4777 18.0823 36.1707 18.0823 36.1707V38.8792C18.0823 41.8816 19.4447 43.7974 20.1382 44.5819C20.5787 45.0105 25.0618 49.3954 25.1173 49.4537C26.508 50.8115 26.751 51.4586 27.0595 52.2313V48.5554C27.0595 45.4565 25.4896 44.2561 24.6823 43.4706Z" fill="white"/>
<path d="M34.5958 13.8129C34.2472 13.8129 33.9032 13.8211 33.5628 13.8365V15.3082C33.9032 15.29 34.2472 15.2827 34.5958 15.2827C45.7081 15.2827 54.7208 24.2927 54.7208 35.4078C54.7208 46.521 45.7081 55.5319 34.5958 55.5319C23.478 55.5319 14.468 46.521 14.468 35.4078C14.468 29.2391 17.2447 23.7193 21.6141 20.028V18.1486C16.3828 22.0911 13 28.3545 13 35.4078C13 47.3319 22.668 56.9999 34.5958 56.9999C46.5208 56.9999 56.1879 47.3319 56.1879 35.4078C56.1879 23.4818 46.5208 13.8129 34.5958 13.8129Z" fill="white"/>
<path d="M49.8711 46.6814C50.2078 46.2263 50.5236 45.754 50.8212 45.2698V42.3721H49.8711V46.6814Z" fill="white"/>
<path d="M52.6406 41.3166C52.7752 40.8998 52.899 40.4793 53.0046 40.0552H49.8711V40.8261H50.3461C51.1825 40.8006 52.1154 40.7906 52.6406 41.3166Z" fill="white"/>
<path d="M31.7779 39.9502H30.9297V48.5598H31.7779V39.9502Z" fill="white"/>
<path d="M46.6784 44.3718L45.7582 43.4945L46.6784 38.7374V44.3718ZM28.9714 38.286H31.7782C32.5035 38.286 33.0086 38.4362 33.3053 38.7192C33.602 38.9977 33.7367 39.5037 33.7367 40.23V48.2752C33.7367 49.0043 33.602 49.5094 33.3053 49.7897C32.8594 50.2347 32.0421 50.2347 31.3595 50.2347C31.2112 50.221 31.061 50.221 30.929 50.221V54.0344C31.2112 54.089 31.4933 54.139 31.7782 54.1818V51.051C33.0696 51.051 33.9187 50.6097 34.3155 49.7259V54.3866C34.4074 54.3875 34.4994 54.3902 34.5967 54.3902C34.7742 54.3902 34.9526 54.3875 35.1301 54.3829V40.3801C35.1301 39.6366 35.2812 39.1178 35.5587 38.8211C35.839 38.5253 36.3487 38.3779 37.0613 38.3779C37.7885 38.3779 38.8533 38.2714 39.4048 38.8211C39.6878 39.1178 39.8198 39.6366 39.8198 40.3801V44.5047H37.894V40.098H37.0613V54.2309C37.3398 54.1964 37.6165 54.1536 37.894 54.1045V45.3365H39.8198V53.6612C40.2166 53.5484 40.6079 53.4209 40.9929 53.2845V45.6642C40.9929 44.8023 41.2004 44.1507 42.0796 43.8549L41.1103 38.5527H43.0571L43.382 44.3445H43.6213L43.9462 38.5527H45.9967L44.8982 43.8549C45.8183 44.178 45.9967 44.744 45.9967 45.6642V50.586C46.5673 50.1573 47.1125 49.6977 47.6294 49.2081V38.509H53.3275C53.3667 38.2541 53.4049 37.9966 53.4367 37.7372H40.102L40.2903 38.6937C39.8672 37.9211 39.0672 37.5297 37.894 37.5297H37.0613C35.647 37.5297 34.7879 38.093 34.462 39.2134C34.1599 38.0393 33.2653 37.4551 31.7782 37.4551H28.125V53.259C28.4054 53.36 28.6884 53.4547 28.9714 53.5429V38.286Z" fill="white"/>
<path d="M43.0586 52.4033C43.3543 52.255 43.6465 52.1003 43.9341 51.9392V45.4238H43.0586V52.4033Z" fill="white"/>
</svg>
