<svg width="70" height="70" viewBox="0 0 70 70" fill="none" xmlns="http://www.w3.org/2000/svg">
<rect width="70" height="70" fill="#1A9F29"/>
<path d="M54.2323 21.5517C53.7491 20.8792 53.2659 20.2066 52.7827 19.5341L26.0138 34.8098L13.0642 27.4121C12.7743 28.2768 12.581 29.0454 12.4844 29.91L26.1104 37.692L54.2323 21.5517Z" fill="white"/>
<path d="M26.0126 40.5715L12.0966 32.5974C12 33.0777 12 33.6542 12 34.1345C12 46.7202 22.2437 57 35 57C47.6597 57 58 46.8162 58 34.1345C58 30.3877 57.1303 26.833 55.4874 23.7586L26.0126 40.5715Z" fill="white"/>
<path d="M50.9434 17.6123C50.2669 16.9398 49.5905 16.4594 48.914 15.883L26.0106 29.045L14.9938 22.8003C14.6073 23.4728 14.2207 24.2414 13.8342 25.01L25.914 31.9272L50.9434 17.6123Z" fill="white"/>
<path d="M46.5987 14.345C45.729 13.8647 44.8592 13.3843 43.8928 13L26.0147 23.2798L17.9937 18.7644C17.4138 19.3408 16.9307 20.0134 16.3508 20.6859L25.918 26.162L46.5987 14.345Z" fill="white"/>
</svg>
