<svg width="70" height="70" viewBox="0 0 70 70" fill="none" xmlns="http://www.w3.org/2000/svg">
<rect width="70" height="70" fill="#005187"/>
<path d="M58.6251 13.0446C58.362 12.7612 54.8204 14.3737 54.8204 14.3737C54.8669 14.3428 54.9232 14.3069 54.9805 14.2689C55.6765 13.8661 56.7831 13.2867 56.3695 12.8161C56.162 12.5842 55.6941 12.6873 54.3434 13.4521C53.7094 13.8132 50.3943 15.1022 46.9659 16.4581C44.1377 17.6043 39.0023 19.6803 38.5432 20.1559C38.53 20.1719 38.5177 20.1831 38.5062 20.2004C38.4578 20.2743 38.4123 20.3655 38.3652 20.4584C38.1886 20.8303 38.0105 21.3989 37.8356 22.1139C37.8292 22.138 37.8234 22.158 37.8176 22.1824C37.8075 22.2254 37.7973 22.2722 37.7868 22.3153C37.5776 23.2643 37.3894 24.4252 37.1833 25.7094C36.5784 29.608 35.9607 35.41 35.9607 35.41C35.9607 35.41 35.8048 39.3608 35.4047 41.2462C35.3267 41.6049 35.2365 41.8562 35.1674 42.0348C35.1399 42.129 35.106 42.2233 35.0704 42.3141C35.069 42.3152 35.066 42.3206 35.066 42.3237C35.066 42.3223 35.066 42.3206 35.066 42.3206C34.9293 42.6705 34.7439 43 34.4863 43.2587C33.6949 44.069 31.7468 43.8103 31.2085 43.748C29.9499 43.6042 28.7168 42.7844 28.5463 42.5674C28.3825 42.3467 27.5129 41.2594 26.3965 41.1584C26.0669 41.1292 24.7162 41.35 24.2734 41.3374C23.8285 41.3239 23.2088 40.741 22.5087 40.6712C21.7967 40.5892 20.6636 41.2557 20.6636 41.2557C20.6636 41.2557 23.4475 42.2233 23.7879 42.6597C24.1259 43.1004 24.962 44.2023 25.9757 44.6339C26.9894 45.0661 30.5314 48.8004 30.5314 48.8004C30.5314 48.8004 31.2539 49.4865 32.4544 50.3857C31.4051 50.7301 30.2984 50.9742 29.1494 51.0916C21.2285 51.9018 14.463 47.0451 13.5774 39.8161C13.3801 38.2308 13.4977 36.6559 13.9158 35.1509C14.4056 33.3367 15.1576 31.5954 16.4772 30.0877C18.8807 27.329 22.1717 25.5256 26.0106 25.1371C28.3503 24.8954 30.73 25.2314 32.9148 26.0267C32.8985 25.7942 32.8812 25.5643 32.8664 25.3348C30.6741 24.5597 28.2947 24.2692 25.893 24.5177C21.9527 24.9222 18.4229 26.6984 15.952 29.5287C14.1955 31.528 13.1302 33.8918 12.8125 36.3817C12.7471 36.7258 12.7386 36.9743 12.6973 37.427C12.6267 38.2735 12.6501 39.8822 12.7576 40.7583C13.6571 48.0924 20.8948 53.3719 28.9304 52.5501C30.6443 52.3752 32.2605 51.9358 33.7197 51.2875C34.887 52.0605 36.2917 52.8797 37.8207 53.4954C41.6007 55.0312 46.2387 55.196 47.2714 55.3139C49.4348 55.5716 51.3731 58.0981 51.9773 58.6026C52.5689 59.101 56.6231 58.3083 56.6231 58.3083C56.6231 58.3083 56.3312 57.5495 56.162 56.5785C55.9928 55.6096 54.8337 55.1729 54.6072 54.922C54.3787 54.6738 49.1639 52.4999 48.3282 52.0178C47.5013 51.5404 46.4493 50.5403 45.3588 48.8458C44.2831 47.1448 44.7391 45.8778 44.9174 45.5584C45.1101 45.2424 45.5284 45.1756 45.7725 44.7546C46.0281 44.3298 45.8254 44.2969 45.8003 44.0822C45.7796 43.8653 45.8695 43.7076 46.0915 43.3371C46.3153 42.9692 46.2228 43.0014 46.2228 43.0014C46.2228 43.0014 46.2228 43.0014 46.2709 42.5417C46.3166 42.0816 46.2709 42.5417 46.3668 42.3854C46.4581 42.2233 46.4581 42.2233 46.4581 42.2233C46.4581 42.2233 46.4343 42.0043 46.5313 41.8466C46.6225 41.6924 46.4184 41.527 46.4581 41.3374C46.4977 41.151 46.5492 41.1787 46.6272 40.8096C46.6937 40.4342 46.658 40.6183 46.6713 40.2182C46.6937 39.8161 46.7978 40.002 47.0198 39.7734C47.2263 39.5365 46.7978 39.2479 46.7978 39.2479C46.7978 39.2479 46.8276 39.0679 47.1836 38.3569C47.5335 37.6382 47.1836 38.3569 47.2819 38.067C47.3833 37.77 47.1585 37.5199 47.111 37.2323C47.0629 36.9258 47.151 37.0346 47.2171 36.6655C47.2836 36.2905 47.2171 36.6655 47.3466 36.3199C47.4731 35.9772 47.4216 35.8118 47.4216 35.8118L47.1836 35.0808C47.1836 35.0808 47.1836 35.0808 47.3087 34.8729C47.4365 34.658 47.3057 34.2495 47.3057 34.2495L46.9802 33.4083C46.9802 33.4083 46.9934 33.0075 47.0334 32.8194C47.069 32.6288 46.7462 31.7901 46.7462 31.7901L46.9537 30.9381L46.6506 29.6996L46.4506 28.6458C46.4506 28.6458 46.4167 27.0574 46.4153 26.4407C46.4007 25.8267 46.4007 25.0781 46.5228 24.2437C46.6374 23.4145 49.2582 22.4004 49.5436 21.9176C49.8189 21.446 47.9529 21.9542 47.9529 21.9542C47.9529 21.9542 51.2463 21.0619 51.4711 20.6852C51.6402 20.4035 49.3182 20.8198 49.3182 20.8198C49.1124 20.856 49.3182 20.8198 49.3182 20.8198C50.2146 20.6343 52.5879 20.101 53.3975 19.464C54.3095 18.7191 51.801 19.2917 51.3971 19.3914C51.808 19.2894 54.5689 18.6038 54.9499 17.8434C55.172 17.4064 52.8855 17.7237 52.8855 17.7237C54.0284 17.4538 55.3897 17.0843 56.2241 16.6984C57.8674 15.9458 57.963 15.3748 57.6321 15.2148C57.2995 15.0551 54.5865 15.8936 54.5865 15.8936C54.5241 15.9136 54.4902 15.9244 54.4451 15.9393C54.5214 15.9136 54.5865 15.8936 54.5865 15.8936C55.3703 15.6172 56.2356 15.2782 56.7347 14.9717C57.7822 14.3353 59.074 13.5423 58.6251 13.0446ZM54.3906 14.5795C54.4851 14.5337 54.6245 14.4676 54.7201 14.4221C54.5655 14.4961 54.457 14.5472 54.3906 14.5795Z" fill="white"/>
<path d="M51.6143 12.0569C51.3587 11.787 49.6794 12.5651 49.6794 12.5651C49.6794 12.5651 39.4415 17.0652 34.9282 19.3011C33.9568 19.7812 32.7553 20.5376 32.7465 21.986C32.7241 26.6396 33.726 33.4926 34.2322 37.0993C34.7383 40.7074 35.0828 42.2042 35.0665 42.3235C35.0841 42.1974 35.271 41.8773 35.4052 41.2461C35.8053 39.3607 35.9612 35.4099 35.9612 35.4099C35.9612 35.4099 36.5789 29.6079 37.1838 25.7093C37.5974 23.1136 37.9507 21.0183 38.5172 20.183C38.882 19.6507 47.1441 16.4078 48.586 15.7941C50.3463 15.0441 50.5433 14.8468 50.5786 14.3108C50.6152 13.7744 48.7362 14.3698 48.7362 14.3698C48.7362 14.3698 50.3565 13.5713 50.9437 13.191C51.5394 12.816 51.8703 12.3257 51.6143 12.0569ZM17.4887 29.0057L20.139 25.5658L16.9062 28.5111L15.4291 23.5486L15.6881 28.5921L12.9774 26.9525L15.4511 29.297L12 30.167L15.4979 30.0066L12.6065 33.6994L16.0454 30.5711L17.4667 35.1587L17.2195 30.582L19.8244 32.131L17.3137 29.753L20.7716 28.8525L17.4887 29.0057Z" fill="#009FE3"/>
</svg>
