<svg width="70" height="70" viewBox="0 0 70 70" fill="none" xmlns="http://www.w3.org/2000/svg">
<rect width="70" height="70" fill="#F1F1F1"/>
<path fill-rule="evenodd" clip-rule="evenodd" d="M54.7117 16.5094H54.9664V16H26.5172C23.1975 16 20.0137 17.3188 17.6662 19.6662C15.3188 22.0137 14 25.1975 14 28.5172L14 28.6493H42.4491C42.4815 25.4184 43.7877 22.3307 46.0838 20.0575C48.38 17.7843 51.4806 16.5092 54.7117 16.5094Z" fill="#005B99"/>
<path fill-rule="evenodd" clip-rule="evenodd" d="M14.2547 52.8718H14V53.3906H42.4491C45.7624 53.3906 48.9405 52.077 51.2869 49.7377C53.6332 47.3984 54.9564 44.2243 54.9664 40.911V40.779H26.5172C26.4726 44.0017 25.161 47.0773 22.8661 49.3404C20.5713 51.6035 17.4777 52.8721 14.2547 52.8718Z" fill="#009E49"/>
<path fill-rule="evenodd" clip-rule="evenodd" d="M54.9677 40.5247H55.2035C55.0439 37.3601 53.6892 34.3741 51.4131 32.1697C49.1369 29.9653 46.109 28.707 42.9409 28.6489C42.9757 31.8139 44.2588 34.8372 46.511 37.0611C48.7632 39.2851 51.8025 40.5299 54.9677 40.5247Z" fill="#009E49"/>
<path fill-rule="evenodd" clip-rule="evenodd" d="M14 28.9498C14.1733 32.1052 15.5337 35.0784 17.8082 37.2724C20.0827 39.4664 23.1029 40.7189 26.2626 40.7784C26.2278 37.6158 24.9477 34.5944 22.6998 32.3694C20.4519 30.1445 17.4175 28.8954 14.2547 28.8932L14 28.9498Z" fill="#005B99"/>
</svg>
