<svg width="70" height="70" viewBox="0 0 70 70" fill="none" xmlns="http://www.w3.org/2000/svg">
<rect width="70" height="70" fill="#0A2973"/>
<path d="M23.6466 27.5479H10.7853L11.7119 25H24.5731L23.6466 27.5479ZM23.1833 28.8219H10.3163L9.38978 31.3698H22.251L23.1833 28.8219ZM21.7935 32.6322H8.92652L8 35.1801H20.8496L21.7935 32.6322Z" fill="#009FDF"/>
<path d="M54.2895 41.5558H56.6057C56.935 41.5951 57.2688 41.5528 57.5778 41.4326C57.8868 41.3124 58.1615 41.1181 58.3777 40.8667C58.6955 40.4509 58.8555 39.9359 58.8294 39.4132C58.8511 39.0806 58.79 38.7478 58.6516 38.4447C58.5131 38.1415 58.3016 37.8774 58.0361 37.676C57.6061 37.3947 57.0948 37.2643 56.5826 37.3054H54.2895V41.5558ZM51.2493 44.1211V28.822H61.2036L60.3292 31.3873H54.2895V34.7748H56.7505C58.7367 34.7748 59.7675 35.2497 60.4797 35.8577C60.989 36.3086 61.3895 36.869 61.6512 37.4968C61.913 38.1246 62.0292 38.8036 61.9911 39.4827C62.0302 40.214 61.886 40.9435 61.5715 41.6049C61.2569 42.2663 60.7822 42.8386 60.1902 43.2698C59.2347 43.93 58.2329 44.1153 56.1946 44.1153L51.2493 44.1211ZM42.4358 44.1211V31.3815H38.0117V28.822H50.2938L49.4194 31.3873H45.5049V44.1269L42.4358 44.1211ZM30.1769 34.9486H31.9141C32.2694 34.9728 32.6263 34.9455 32.9738 34.8675C33.3351 34.7521 33.6466 34.5173 33.857 34.2016C34.0674 33.886 34.1644 33.5082 34.1319 33.1303C34.1801 32.7547 34.0888 32.3745 33.8754 32.0618C33.6619 31.749 33.3411 31.5255 32.9738 31.4336C32.5944 31.3455 32.2046 31.3104 31.8156 31.3294H30.1769V34.9486ZM30.1769 37.5949V41.6079H32.2963C32.8804 41.6747 33.4676 41.5128 33.935 41.1562C34.1504 40.9566 34.3192 40.712 34.4293 40.4398C34.5394 40.1675 34.5881 39.8744 34.572 39.5811C34.5812 39.1127 34.4391 38.6537 34.1667 38.2724C33.715 37.6934 33.1591 37.5833 32.2094 37.5833L30.1769 37.5949ZM35.0758 35.9793V36.0314C35.5921 36.2302 36.0746 36.5075 36.5061 36.8537C36.9423 37.2157 37.2871 37.6754 37.5125 38.1956C37.7378 38.7157 37.8374 39.2817 37.8032 39.8475C37.8032 41.938 36.6914 43.4494 34.8673 43.901C34.1402 44.0788 33.3914 44.1509 32.6437 44.1153H27.1367V28.822H32.0357C32.8138 28.7935 33.5923 28.8655 34.352 29.0362C36.1239 29.5111 37.2879 30.7329 37.2879 32.6612C37.3023 33.121 37.223 33.5788 37.0548 34.0069C36.8865 34.435 36.6329 34.8244 36.3092 35.1512C35.9655 35.5002 35.5562 35.7777 35.1048 35.9677L35.0758 35.9793Z" fill="white"/>
</svg>
