<svg width="70" height="70" viewBox="0 0 70 70" fill="none" xmlns="http://www.w3.org/2000/svg">
<rect width="70" height="70" fill="#00717B"/>
<path fill-rule="evenodd" clip-rule="evenodd" d="M33.8135 44.6727V41.7013V36.0895V36.1553L41.3962 41.7013H46.3409L37.506 35.0329L45.1544 28.2987H40.7365L33.8135 34.2409V28.2987V25.3936C34.1434 25.3273 34.5387 25.3273 34.9343 25.3273C37.242 25.3273 39.4179 26.0536 41.0003 27.5061H45.8135C43.3739 24.0068 39.4179 21.828 34.9343 21.828C34.6049 21.828 34.2747 21.828 33.8135 21.828V18.1967C34.1434 18.1309 34.5387 18.1309 34.9343 18.1309C42.0552 18.1309 48.253 22.7523 50.6264 29.0907L43.0442 35.0329L50.6926 40.843C48.3192 47.3134 42.1214 51.8031 34.9343 51.8031C34.5387 51.8031 34.1434 51.8031 33.8135 51.8031V48.1717C34.1434 48.2378 34.5387 48.2378 34.9343 48.2378C39.4179 48.2378 43.2418 46.0589 45.6816 42.6917H41.0003C39.286 44.0122 37.242 44.7385 34.9343 44.7385C34.6049 44.7385 34.2747 44.7385 33.8135 44.6727ZM33.8135 58.9337C34.1434 59 34.5387 59 34.9343 59C48.1212 59 59 48.2378 59 35.0329C59 21.828 48.1212 11 34.9343 11C34.5387 11 34.1434 11 33.8135 11V14.7634C34.1434 14.7634 34.5387 14.7634 34.9343 14.7634C44.2973 14.7634 52.0775 21.036 54.5827 29.7512L47.6596 35.0329L54.7148 40.3808H54.5827C52.0775 48.898 44.2973 55.3024 34.9343 55.3024C34.5387 55.3024 34.1434 55.3024 33.8135 55.3024V58.9337ZM33.8135 44.6727V41.7013L30.6486 41.6356V28.2987H33.8135V25.3936C31.5058 25.6577 29.3956 26.7141 27.8794 28.2324C26.297 30.0153 25.242 32.4579 25.242 35.0329C25.242 39.9187 29.0003 44.0785 33.8135 44.6727ZM33.8135 21.828V18.1967C27.8794 18.5931 22.8025 22.1581 20.1651 27.1102L16.4069 26.9782C19.3744 20.1114 25.9673 15.2256 33.8135 14.7634V11C21.1538 11.5942 11 22.2244 11 35.0329C11 47.8419 21.1538 58.3395 33.8135 58.9337V55.3024C25.7036 54.8402 18.9124 49.5585 16.0113 42.3619L19.7695 42.2958C22.3409 47.6435 27.6162 51.3409 33.8135 51.8031V48.1717C27.0885 47.5775 21.7478 41.8997 21.7478 35.0329C21.7478 31.5999 23.0005 28.6285 25.044 26.2519C27.2198 23.809 30.319 22.2244 33.8135 21.828Z" fill="white"/>
</svg>
