<svg width="424" height="209" viewBox="0 0 424 209" fill="none" xmlns="http://www.w3.org/2000/svg">
<g opacity="0.6">
<path d="M26.9284 187.595V151.977H40.0173V141.166H0V151.977H13.0888V187.595H26.9284Z" fill="white"/>
<path d="M48.3576 141.166V187.595H62.1972V174.918H68.9211C79.921 174.918 87.3956 168.322 87.3956 158.091C87.3956 147.762 80.3453 141.166 69.8677 141.166H48.3576ZM62.1972 151.463H66.1793C70.6837 151.463 73.4255 153.715 73.4255 158.123C73.4255 162.563 70.6837 164.815 66.0814 164.815H62.1972V151.463Z" fill="white"/>
<path d="M122.24 187.595H137.385L122.044 141.166H104.679L89.3384 187.595H102.982L105.495 178.361H119.825L122.24 187.595ZM112.448 152.556H113.101L117.409 168.741H107.976L112.448 152.556Z" fill="white"/>
<path d="M189.464 187.595V141.166H175.624V158.798H159.043V141.166H145.203V187.595H159.043V169.609H175.624V187.595H189.464Z" fill="white"/>
<path d="M221.338 188.882C234.035 188.882 243.174 180.806 243.24 169.513H230.02C229.596 174.403 226.103 177.653 221.371 177.653C215.561 177.653 212.035 172.602 212.035 164.333C212.035 156.096 215.561 151.109 221.338 151.109C226.103 151.109 229.596 154.39 229.955 159.185H243.174C243.142 148.148 233.774 139.879 221.338 139.879C206.78 139.879 197.935 149.146 197.935 164.365C197.935 179.584 206.813 188.882 221.338 188.882Z" fill="white"/>
<path d="M265.354 187.595V151.977H284.286V141.166H251.515V187.595H265.354Z" fill="white"/>
<path d="M292.953 141.166V187.595H306.792V174.918H313.516C324.516 174.918 331.991 168.322 331.991 158.091C331.991 147.762 324.94 141.166 314.463 141.166H292.953ZM306.792 151.463H310.774C315.279 151.463 318.021 153.715 318.021 158.123C318.021 162.563 315.279 164.815 310.676 164.815H306.792V151.463Z" fill="white"/>
<path d="M346.598 188.11C356.455 188.11 361.188 182.898 364.942 174.307L379.369 141.166H364.713L357.565 162.692H356.912L349.274 141.166H334.619L349.797 175.369C348.361 177.042 346.435 177.299 344.215 177.299C341.865 177.299 341.082 176.977 341.082 176.977V187.595C341.082 187.595 343.628 188.11 346.598 188.11Z" fill="white"/>
<path d="M397.24 169.159H403.279C407.294 169.159 409.709 170.703 409.709 173.31C409.709 176.334 407.163 178.329 403.409 178.329C399.166 178.329 396.522 176.431 396.457 173.31H383.27C383.695 182.769 391.496 188.882 403.116 188.882C415.225 188.882 423.908 183.252 423.908 174.468C423.908 168.612 419.762 164.397 413.267 163.786V163.142C418.555 162.241 422.276 157.962 422.276 152.685C422.276 144.834 414.605 139.879 403.475 139.879C391.594 139.879 384.184 145.993 384.119 155.324H396.62C396.62 152.074 399.264 149.854 403.181 149.854C407.065 149.854 409.415 151.623 409.415 154.551C409.415 157.415 407.065 159.185 403.344 159.185H397.24V169.159Z" fill="white"/>
<path d="M5.44009 207.089C8.24915 207.089 10.2966 205.422 10.4845 203.004H8.09089C7.85351 204.222 6.81495 205.012 5.44998 205.012C3.63991 205.012 2.52222 203.559 2.52222 201.219C2.52222 198.879 3.63991 197.436 5.44009 197.436C6.80505 197.436 7.84362 198.285 8.07111 199.552H10.4746C10.3065 197.124 8.1997 195.36 5.44009 195.36C2.06723 195.36 0 197.592 0 201.219C0 204.856 2.07712 207.089 5.44009 207.089Z" fill="white"/>
<path d="M25.2452 206.796V195.652H15.275V206.796H17.7477V197.67H22.7823V206.796H25.2452Z" fill="white"/>
<path d="M38.3738 204.798H33.1612V202.097H38.0869V200.235H33.1612V197.661H38.3738V195.652H30.6884V206.796H38.3738V204.798Z" fill="white"/>
<path d="M54.9841 209V204.798H53.54V195.652H51.0771V204.798H46.0425V195.652H43.5698V206.796H52.7487V209H54.9841Z" fill="white"/>
<path d="M67.1928 206.796H69.6458V195.652H67.2719L62.1286 203.023H61.9802V195.652H59.5173V206.796H61.9011L67.0444 199.445H67.1928V206.796Z" fill="white"/>
<path d="M82.537 206.796H85.2076L81.2017 195.652H78.2838L74.2879 206.796H76.7606L77.6409 204.144H81.6765L82.537 206.796ZM79.5994 197.973H79.7378L81.1621 202.341H78.1652L79.5994 197.973Z" fill="white"/>
<path d="M99.1671 206.796V195.652H91.1553L90.819 202.194C90.7399 203.637 90.4728 204.72 89.3057 204.72C89.0881 204.72 88.8705 204.681 88.7518 204.651V206.787C88.91 206.835 89.2364 206.894 89.642 206.894C92.0554 206.894 92.9456 205.119 93.0939 202.37L93.3709 197.661H96.6943V206.796H99.1671Z" fill="white"/>
<path d="M112.286 206.796H114.739V195.652H112.365L107.222 203.023H107.073V195.652H104.61V206.796H106.994L112.137 199.445H112.286V206.796Z" fill="white"/>
<path d="M122.595 202.087H124.138C125.484 202.087 126.275 202.633 126.275 203.54C126.275 204.476 125.444 205.129 124.178 205.129C122.872 205.129 122.012 204.534 121.953 203.598H119.589C119.687 205.704 121.488 207.089 124.148 207.089C126.829 207.089 128.807 205.695 128.807 203.706C128.807 202.224 127.759 201.219 126.216 201.073V200.927C127.541 200.664 128.461 199.64 128.461 198.402C128.461 196.578 126.74 195.36 124.277 195.36C121.646 195.36 119.984 196.715 119.905 198.811H122.18C122.239 197.856 123.021 197.251 124.208 197.251C125.404 197.251 126.097 197.817 126.097 198.704C126.097 199.601 125.306 200.205 124.119 200.205H122.595V202.087Z" fill="white"/>
<path d="M141.332 206.796H143.785V195.652H141.411L136.268 203.023H136.12V195.652H133.657V206.796H136.041L141.184 199.445H141.332V206.796Z" fill="white"/>
<path d="M149.248 195.652V206.796H151.721V203.345H153.966C156.419 203.345 158.111 201.814 158.111 199.513C158.111 197.193 156.489 195.652 154.095 195.652H149.248ZM151.721 197.583H153.442C154.817 197.583 155.608 198.255 155.608 199.523C155.608 200.761 154.807 201.444 153.432 201.444H151.721V197.583Z" fill="white"/>
<path d="M168.074 195.36C164.662 195.36 162.486 197.612 162.486 201.229C162.486 204.837 164.622 207.089 168.074 207.089C171.487 207.089 173.633 204.837 173.633 201.229C173.633 197.612 171.487 195.36 168.074 195.36ZM168.074 197.427C169.924 197.427 171.121 198.899 171.121 201.229C171.121 203.54 169.924 205.022 168.074 205.022C166.185 205.022 165.008 203.54 165.008 201.229C165.008 198.899 166.215 197.427 168.074 197.427Z" fill="white"/>
<path d="M183.794 206.796C186.267 206.796 187.81 205.558 187.81 203.598C187.81 202.175 186.682 201.063 185.149 200.956V200.82C186.346 200.644 187.256 199.62 187.256 198.431C187.256 196.715 185.921 195.652 183.666 195.652H178.572V206.796H183.794ZM181.045 197.446H183.033C184.16 197.446 184.823 197.973 184.823 198.86C184.823 199.757 184.121 200.274 182.835 200.274H181.045V197.446ZM181.045 205.002V201.853H183.112C184.516 201.853 185.288 202.389 185.288 203.403C185.288 204.447 184.536 205.002 183.151 205.002H181.045Z" fill="white"/>
<path d="M199.673 206.796H202.343L198.337 195.652H195.419L191.423 206.796H193.896L194.776 204.144H198.812L199.673 206.796ZM196.735 197.973H196.873L198.298 202.341H195.301L196.735 197.973Z" fill="white"/>
<path d="M217.064 206.796V195.652H214.591V200.147H209.438V195.652H206.965V206.796H209.438V202.146H214.591V206.796H217.064Z" fill="white"/>
<path d="M232.616 206.796V195.652H230.143V200.147H224.99V195.652H222.517V206.796H224.99V202.146H230.143V206.796H232.616Z" fill="white"/>
<path d="M238.069 206.796H242.876C245.26 206.796 246.902 205.314 246.902 203.072C246.902 200.839 245.201 199.347 242.748 199.347H240.542V195.652H238.069V206.796ZM250.76 206.796V195.652H248.297V206.796H250.76ZM240.542 204.866V201.258H242.214C243.579 201.258 244.37 201.892 244.37 203.062C244.37 204.232 243.589 204.866 242.224 204.866H240.542Z" fill="white"/>
<path d="M258.181 191.996C258.181 193.575 259.388 194.58 261.218 194.58C263.047 194.58 264.264 193.575 264.264 191.996H262.494C262.454 192.805 261.989 193.293 261.218 193.293C260.456 193.293 259.981 192.805 259.952 191.996H258.181ZM263.829 206.796H266.282V195.652H263.908L258.765 203.023H258.616V195.652H256.153V206.796H258.537L263.68 199.445H263.829V206.796Z" fill="white"/>
<path d="M281.362 202.087H282.905C284.25 202.087 285.042 202.633 285.042 203.54C285.042 204.476 284.211 205.129 282.945 205.129C281.639 205.129 280.779 204.534 280.719 203.598H278.355C278.454 205.704 280.254 207.089 282.915 207.089C285.595 207.089 287.574 205.695 287.574 203.706C287.574 202.224 286.525 201.219 284.982 201.073V200.927C286.308 200.664 287.228 199.64 287.228 198.402C287.228 196.578 285.506 195.36 283.044 195.36C280.413 195.36 278.751 196.715 278.672 198.811H280.947C281.006 197.856 281.787 197.251 282.974 197.251C284.171 197.251 284.864 197.817 284.864 198.704C284.864 199.601 284.072 200.205 282.885 200.205H281.362V202.087Z" fill="white"/>
<path d="M299.456 206.796H302.127L298.121 195.652H295.203L291.207 206.796H293.68L294.56 204.144H298.596L299.456 206.796ZM296.518 197.973H296.657L298.081 202.341H295.084L296.518 197.973Z" fill="white"/>
<path d="M311.012 207.089C313.811 207.089 315.859 205.422 316.046 203.004H313.653C313.415 204.222 312.377 205.012 311.012 205.012C309.202 205.012 308.084 203.559 308.084 201.219C308.084 198.879 309.202 197.436 311.002 197.436C312.367 197.436 313.406 198.285 313.633 199.552H316.037C315.868 197.124 313.762 195.36 311.002 195.36C307.629 195.36 305.562 197.592 305.562 201.219C305.562 204.856 307.639 207.089 311.012 207.089Z" fill="white"/>
<path d="M325.486 206.796V197.661H328.948V195.652H319.571V197.661H323.023V206.796H325.486Z" fill="white"/>
<path d="M333.738 195.652V206.796H336.211V203.345H338.456C340.909 203.345 342.6 201.814 342.6 199.513C342.6 197.193 340.978 195.652 338.585 195.652H333.738ZM336.211 197.583H337.932C339.307 197.583 340.098 198.255 340.098 199.523C340.098 200.761 339.297 201.444 337.922 201.444H336.211V197.583Z" fill="white"/>
<path d="M352.564 195.36C349.152 195.36 346.976 197.612 346.976 201.229C346.976 204.837 349.112 207.089 352.564 207.089C355.976 207.089 358.123 204.837 358.123 201.229C358.123 197.612 355.976 195.36 352.564 195.36ZM352.564 197.427C354.414 197.427 355.61 198.899 355.61 201.229C355.61 203.54 354.414 205.022 352.564 205.022C350.675 205.022 349.498 203.54 349.498 201.229C349.498 198.899 350.704 197.427 352.564 197.427Z" fill="white"/>
<path d="M365.089 191.996C365.089 193.575 366.296 194.58 368.126 194.58C369.956 194.58 371.172 193.575 371.172 191.996H369.402C369.362 192.805 368.897 193.293 368.126 193.293C367.364 193.293 366.889 192.805 366.86 191.996H365.089ZM370.737 206.796H373.19V195.652H370.816L365.673 203.023H365.524V195.652H363.062V206.796H365.445L370.589 199.445H370.737V206.796Z" fill="white"/>
<path d="M393.984 209V204.798H392.54V195.652H390.077V204.798H386.833V195.652H384.36V204.798H381.126V195.652H378.653V206.796H391.759V209H393.984Z" fill="white"/>
<path d="M406.193 206.796H408.646V195.652H406.272L401.129 203.023H400.98V195.652H398.517V206.796H400.901L406.045 199.445H406.193V206.796Z" fill="white"/>
<path d="M416.582 200.381V195.652H414.109V206.796H416.582V202.243H417.037L421.023 206.796H424L419.094 201.102L423.693 195.652H420.954L417.017 200.381H416.582Z" fill="white"/>
<path d="M255.138 44.0336L209.285 0L161.99 47.1489V61.2359L169.341 53.9145V106.497H178.83V44.4427L209.409 13.9716L239.519 42.8903V92.3364H249.018V52.0054L255.138 57.8899V44.0336Z" fill="white"/>
<path d="M191.442 99.0495V54.1662L209.362 34.929L224.608 50.9355H234.422L209.304 24.5552L184.664 51.0299V106.497H291.827V99.0495H191.442Z" fill="white"/>
<path d="M211.05 59.1695H202.009V68.6832H211.05V59.1695Z" fill="white"/>
<path d="M223.691 59.3059H214.651V68.8196H223.691V59.3059Z" fill="white"/>
<path d="M211.367 72.9943H202.335V82.4975H211.367V72.9943Z" fill="white"/>
<path d="M223.892 72.9943H214.851V82.4975H223.892V72.9943Z" fill="white"/>
<path fill-rule="evenodd" clip-rule="evenodd" d="M280.571 39.796H271.826V22.9084L278.452 26.9887V22.0273L257.506 5.44387L236.36 21.5343L258.203 42.5127V65.2742L252.083 59.3898V92.5881H291.731V52.0264L280.571 39.796ZM268.58 60.4597H274.938V67.1308H268.58V60.4597ZM275.168 76.8858H268.819V70.1937H275.177L275.168 76.8858ZM277.468 60.5646H283.827V67.2567H277.468V60.5646ZM283.97 76.8858H277.612V70.1937H283.97V76.8858Z" fill="white"/>
<path fill-rule="evenodd" clip-rule="evenodd" d="M158.945 45.6595L169.923 34.7192L156.997 20.4854L133.254 43.7924V106.025L166.286 106.119V61.4877L158.945 68.8301V45.6595ZM138.152 57.5542H144.51V64.2463H138.152V57.5542ZM138.381 67.2882H144.71V73.9803H138.381V67.2882ZM138.581 79.5081H144.939V86.2002H138.581V79.5081ZM145.169 95.9342H138.81V89.2421H145.169V95.9342ZM147.078 57.6591H153.398V64.3407H147.04L147.078 57.6591ZM147.221 67.2882H153.579V73.9803H147.183L147.221 67.2882ZM147.508 79.613H153.866V86.3051H147.469L147.508 79.613ZM153.971 95.9342H147.574V89.2421H153.971V95.9342Z" fill="white"/>
</g>
</svg>
