<svg width="693" height="606" viewBox="0 0 693 606" fill="none" xmlns="http://www.w3.org/2000/svg">
<path d="M52.2693 605.914C81.1368 605.914 104.539 602.353 104.539 597.96C104.539 593.567 81.1368 590.006 52.2693 590.006C23.4018 590.006 0 593.567 0 597.96C0 602.353 23.4018 605.914 52.2693 605.914Z" fill="url(#paint0_linear)"/>
<path d="M645.938 558.497C645.938 563.061 628.089 566.762 606.071 566.762C584.052 566.762 566.203 563.061 566.203 558.497C566.203 553.932 584.052 550.231 606.071 550.231C628.089 550.231 645.938 553.932 645.938 558.497Z" fill="url(#paint1_linear)"/>
<path d="M597.068 468.531C583.076 469.773 558.064 394.952 521.775 400.81C521.775 400.81 555.32 384.855 572.209 393.595C600.783 408.382 603.101 467.995 597.068 468.531Z" fill="#EF1B34"/>
<path d="M599.209 519.108C599.209 519.108 606.496 405.597 548.848 397.668" stroke="#FFC7CD" stroke-width="0.933346" stroke-miterlimit="10" stroke-linecap="round"/>
<path d="M616.709 501.39C630.701 502.632 655.713 427.812 692.001 433.67C692.001 433.67 658.457 417.715 641.568 426.455C612.994 441.242 610.675 500.854 616.709 501.39Z" fill="#EF1B34"/>
<path d="M614.568 551.967C614.568 551.967 607.282 438.457 664.93 430.527" stroke="#FFC7CD" stroke-width="0.933346" stroke-miterlimit="10" stroke-linecap="round"/>
<path d="M542.848 281.228C542.848 281.228 563.136 291.8 574.351 343.662C582.971 383.522 601.782 398.524 601.782 398.524C601.782 398.524 607.505 357.229 598.282 320.088C590.352 288.157 569.35 275.084 541.705 280.656" fill="#EF1B34"/>
<path d="M605.495 516.249C605.495 514.82 613.282 312.373 560.92 289.371" stroke="#FFC7CD" stroke-width="0.933346" stroke-miterlimit="10" stroke-linecap="round"/>
<path d="M672.912 317.232C672.912 317.232 652.624 327.804 641.409 379.666C632.789 419.526 613.978 434.528 613.978 434.528C613.978 434.528 608.255 393.233 617.478 356.092C625.407 324.161 646.409 311.088 674.054 316.66" fill="#EF1B34"/>
<path d="M610.265 552.253C610.265 550.824 602.478 348.377 654.84 325.375" stroke="#FFC7CD" stroke-width="0.933346" stroke-miterlimit="10" stroke-linecap="round"/>
<path d="M623.067 559.253H591.524C589.491 559.253 587.796 557.696 587.625 555.671L583.602 514.338H630.989L626.966 555.671C626.794 557.696 625.1 559.253 623.067 559.253Z" fill="#D4E6F9"/>
<path d="M632.174 522.373H582.417C581.478 522.373 580.717 521.612 580.717 520.674V516.038C580.717 515.099 581.478 514.338 582.417 514.338H632.174C633.112 514.338 633.873 515.099 633.873 516.038V520.674C633.873 521.612 633.112 522.373 632.174 522.373Z" fill="#C3DDF4"/>
<path d="M66.8867 444.452V168.478C66.8867 163.738 70.7298 159.895 75.4704 159.895H582.319C587.06 159.895 590.903 163.738 590.903 168.478V444.452C590.903 449.192 587.06 453.035 582.319 453.035H75.4704C70.7298 453.035 66.8867 449.192 66.8867 444.452Z" fill="#D4E6F9"/>
<path d="M581.121 443.067V169.862L76.6724 169.862L76.6724 443.067L581.121 443.067Z" fill="white"/>
<path d="M225.856 239.749C224.767 234.942 222.916 230.416 220.458 226.293C216.616 219.823 211.25 214.332 204.872 210.35C200.813 207.799 196.317 205.854 191.542 204.641C187.809 203.692 183.904 203.194 179.876 203.194C176.22 203.194 172.658 203.614 169.251 204.408C164.445 205.497 159.919 207.348 155.796 209.79C149.326 213.647 143.835 219.014 139.868 225.391C137.302 229.451 135.373 233.931 134.159 238.706C133.195 242.44 132.697 246.344 132.697 250.373C132.697 254.028 133.117 257.59 133.926 260.997C134.999 265.803 136.85 270.33 139.308 274.452C143.15 280.923 148.517 286.414 154.894 290.396C158.954 292.947 163.434 294.891 168.209 296.104C171.943 297.053 175.847 297.551 179.876 297.551C183.531 297.551 187.093 297.131 190.515 296.338C195.322 295.249 199.848 293.413 203.955 290.956C210.441 287.098 215.916 281.747 219.898 275.354C222.465 271.294 224.409 266.814 225.623 262.039C226.571 258.306 227.069 254.401 227.069 250.373C227.069 246.717 226.649 243.155 225.856 239.749ZM153.696 250.373C153.696 235.907 165.425 224.194 179.876 224.194C194.342 224.194 206.07 235.907 206.07 250.373C206.07 264.839 194.342 276.552 179.876 276.552C165.425 276.552 153.696 264.839 153.696 250.373Z" fill="#D4E6F9"/>
<path d="M187.435 220.56H173.364C171.093 220.56 169.252 218.718 169.252 216.447V198.229C169.252 195.957 171.093 194.116 173.364 194.116H187.435C189.706 194.116 191.547 195.957 191.547 198.229V216.447C191.547 218.718 189.706 220.56 187.435 220.56Z" fill="#D4E6F9"/>
<path d="M164.143 223.95L154.194 233.899C152.588 235.505 149.984 235.505 148.378 233.899L135.495 221.017C133.89 219.411 133.89 216.807 135.495 215.201L145.445 205.251C147.051 203.645 149.655 203.645 151.261 205.251L164.143 218.134C165.749 219.74 165.749 222.344 164.143 223.95Z" fill="#D4E6F9"/>
<path d="M150.068 242.82V256.89C150.068 259.161 148.227 261.002 145.956 261.002H127.737C125.466 261.002 123.625 259.161 123.625 256.89V242.82C123.625 240.548 125.466 238.707 127.737 238.707H145.956C148.227 238.707 150.068 240.548 150.068 242.82Z" fill="#D4E6F9"/>
<path d="M153.459 266.115L163.409 276.064C165.015 277.67 165.015 280.274 163.409 281.88L150.526 294.762C148.921 296.368 146.317 296.368 144.711 294.762L134.761 284.813C133.155 283.207 133.155 280.603 134.761 278.997L147.644 266.115C149.25 264.509 151.853 264.509 153.459 266.115Z" fill="#D4E6F9"/>
<path d="M172.327 280.188H186.398C188.669 280.188 190.51 282.029 190.51 284.3V302.518C190.51 304.79 188.669 306.631 186.398 306.631H172.327C170.056 306.631 168.215 304.79 168.215 302.518V284.3C168.215 282.029 170.056 280.188 172.327 280.188Z" fill="#D4E6F9"/>
<path d="M195.62 276.796L205.57 266.846C207.176 265.24 209.78 265.24 211.386 266.846L224.268 279.729C225.874 281.335 225.874 283.938 224.268 285.544L214.319 295.494C212.713 297.1 210.109 297.1 208.503 295.494L195.62 282.611C194.015 281.005 194.015 278.402 195.62 276.796Z" fill="#D4E6F9"/>
<path d="M209.697 257.927V243.857C209.697 241.585 211.539 239.744 213.81 239.744H232.028C234.299 239.744 236.141 241.585 236.141 243.857V257.927C236.141 260.198 234.299 262.04 232.028 262.04H213.81C211.539 262.04 209.697 260.198 209.697 257.927Z" fill="#D4E6F9"/>
<path d="M206.304 234.633L196.355 224.683C194.749 223.077 194.749 220.473 196.355 218.867L209.237 205.985C210.843 204.379 213.447 204.379 215.053 205.985L225.003 215.934C226.609 217.54 226.609 220.144 225.003 221.75L212.12 234.633C210.514 236.238 207.91 236.238 206.304 234.633Z" fill="#D4E6F9"/>
<path d="M545.074 416.498H309.681C304.68 416.498 300.627 412.444 300.627 407.444V332.156C300.627 327.156 304.68 323.103 309.681 323.103H545.074C550.075 323.103 554.128 327.156 554.128 332.156V407.444C554.128 412.444 550.075 416.498 545.074 416.498Z" fill="#C3DDF4"/>
<path d="M546.027 300.388H308.728C304.254 300.388 300.627 296.762 300.627 292.288V215.094C300.627 210.62 304.254 206.993 308.728 206.993H546.027C550.501 206.993 554.128 210.62 554.128 215.094V292.288C554.128 296.762 550.501 300.388 546.027 300.388Z" fill="#F2F7FC" stroke="#AFC7DD" stroke-width="1.09519" stroke-miterlimit="10" stroke-linecap="round" stroke-dasharray="3.29 3.29"/>
<path d="M330.008 75.0671C328.574 75.0671 327.412 73.9047 327.412 72.4711V2.59606C327.412 1.16238 328.574 0 330.008 0C331.442 0 332.604 1.16238 332.604 2.59606V72.4711C332.604 73.9047 331.442 75.0671 330.008 75.0671Z" fill="#1D262D"/>
<path d="M348.826 71.6064H311.186V125.254H348.826V71.6064Z" fill="url(#paint2_linear)"/>
<path d="M335.198 124.353L324.814 124.425L324.923 140.162L335.306 140.091L335.198 124.353Z" fill="#1D262D"/>
<path d="M328.677 174.551C317.947 174.05 309.118 165.222 308.615 154.493C308.049 142.406 317.718 132.392 329.683 132.392V140.18C322.347 140.18 316.379 146.147 316.379 153.483C316.379 160.82 322.347 166.787 329.683 166.787C336.103 166.787 342.387 162.216 343.856 156.157C344.23 154.615 345.537 153.483 347.123 153.483C349.177 153.483 350.794 155.332 350.419 157.351C348.539 167.456 339.428 175.053 328.677 174.551Z" fill="#1D262D"/>
<path d="M555.441 213.131L328.32 156.312C323.136 155.016 317.875 158.18 316.579 163.364L298.605 235.164C297.309 240.368 300.473 245.628 305.657 246.924L532.779 303.724C537.983 305.039 543.243 301.875 544.539 296.691L562.494 224.872C563.79 219.687 560.645 214.427 555.441 213.131ZM331.236 177.202C327.614 177.202 324.679 174.286 324.679 170.664C324.679 167.043 327.614 164.108 331.236 164.108C334.857 164.108 337.793 167.043 337.793 170.664C337.793 174.286 334.857 177.202 331.236 177.202Z" fill="#C3DDF4"/>
<path d="M366.217 232.878C378.097 227.219 383.139 213.001 377.48 201.122C371.821 189.243 357.604 184.2 345.724 189.859C333.845 195.518 328.802 209.736 334.461 221.615C340.12 233.494 354.338 238.537 366.217 232.878Z" fill="white"/>
<path d="M532.018 239.362L403.201 207.139L404.357 202.517L533.175 234.739L532.018 239.362Z" fill="url(#paint3_linear)"/>
<path d="M527.665 256.772L398.848 224.549L400.004 219.927L528.821 252.149L527.665 256.772Z" fill="url(#paint4_linear)"/>
<path d="M523.308 274.185L394.49 241.963L395.647 237.34L524.464 269.563L523.308 274.185Z" fill="url(#paint5_linear)"/>
<path d="M337.793 170.665C337.793 171.542 337.622 172.38 337.298 173.143C336.325 175.526 333.981 177.203 331.237 177.203C328.911 177.203 326.872 176.002 325.728 174.191C325.728 174.191 325.728 174.21 325.709 174.191C325.061 173.181 324.68 171.961 324.68 170.665C324.68 169.007 325.29 167.501 326.319 166.357C327.501 164.985 329.273 164.108 331.237 164.108C332.819 164.108 334.267 164.68 335.392 165.614C335.392 165.595 335.411 165.614 335.411 165.614C336.859 166.815 337.793 168.626 337.793 170.665Z" fill="url(#paint6_linear)"/>
<path d="M350.487 156.77C350.487 156.961 350.468 157.152 350.43 157.342C349.077 164.604 344.007 170.551 337.298 173.143C334.648 174.192 331.732 174.687 328.682 174.554C327.672 174.516 326.7 174.382 325.728 174.192C325.728 174.192 325.728 174.211 325.709 174.192C325.061 173.181 324.68 171.962 324.68 170.666C324.68 169.007 325.29 167.501 326.319 166.358C327.386 166.644 328.53 166.796 329.693 166.796C331.656 166.796 333.6 166.377 335.392 165.614C335.392 165.595 335.411 165.614 335.411 165.614C339.49 163.861 342.844 160.373 343.854 156.161C344.236 154.617 345.532 153.492 347.133 153.492C348.982 153.492 350.487 154.998 350.487 156.77Z" fill="#1D262D"/>
<path d="M407.101 357.816L392.25 351.359V347.783L407.101 341.355V345.566L396.742 349.526L407.101 353.634V357.816ZM408.475 360.654L413.839 338.251H416.957L411.534 360.654H408.475ZM418.346 357.831V353.649L428.72 349.571L418.346 345.536V341.384L433.212 347.812V351.359L418.346 357.831Z" fill="white"/>
<path d="M165.594 319.046L141.622 349.551L115.85 329.299L139.822 298.793C126.606 296.064 112.375 300.752 103.47 312.084C92.9307 325.495 93.2023 343.948 103.026 356.944C103.081 357.017 103.143 357.085 103.198 357.158L5.47908 478.262C1.5263 483.086 2.30697 490.213 7.20978 494.066C12.1126 497.919 19.2219 496.992 22.9748 492.011L117.543 368.431C117.627 368.467 117.708 368.512 117.792 368.548C132.742 375.02 150.736 370.921 161.275 357.51C170.18 346.178 171.371 331.242 165.594 319.046ZM19.4875 488.132C17.4434 490.734 13.6817 491.184 11.0805 489.14C8.47925 487.096 8.0237 483.331 10.0678 480.73C12.112 478.128 15.8817 477.677 18.4831 479.721C21.0841 481.765 21.5317 485.531 19.4875 488.132Z" fill="#C3DDF4"/>
<path d="M26.9498 477.532L54.392 476.391L55.5946 429.441L53.6995 417.651L41.0239 412.99L32.8605 414.548C28.2202 415.433 24.9187 419.57 25.0841 424.291L28.06 457.519L26.9498 477.532Z" fill="#F7DABA"/>
<path d="M36.1777 405.66V415.094C36.1777 415.094 38.1713 416.285 42.8364 416.285C45.3515 416.285 45.9165 415.094 45.9165 415.094V411.607L36.1777 405.66Z" fill="#F7DABA"/>
<path d="M35.0801 398.615C35.1024 398.957 35.1132 399.277 35.1352 399.585C35.1352 399.696 35.1242 399.806 35.1242 399.927C34.8927 405.527 38.4866 411.524 43.8993 412.34C43.8993 412.34 43.9434 412.351 44.0206 412.362C44.0646 412.362 44.1308 412.373 44.2079 412.373C45.3653 412.517 49.5544 412.858 51.0869 411.172C52.8837 409.187 54.4818 405.55 54.4818 403.065C54.4818 400.579 54.0303 399.991 54.0303 398.988C54.0303 398.206 54.4506 395.756 54.4585 394.693C54.4945 389.696 51.131 384.736 45.1559 384.736C36.1936 384.736 34.8266 392.597 35.0801 398.615Z" fill="#F7DABA"/>
<path d="M9.27011 446.854C11.7268 448.884 24.8441 435.707 29.9958 429.701C35.1475 423.695 38.1335 418.042 35.1344 415.563C32.1354 413.085 27.1453 417.081 22.2162 423.271C17.2872 429.46 6.81347 444.823 9.27011 446.854Z" fill="#F7DABA"/>
<path d="M3.28914 480.892C6.05038 481.494 11.2426 461.34 12.4948 455.603C13.7469 449.866 14.6451 443.717 11.549 443.042C8.45315 442.366 6.7083 448.33 5.45629 454.067C4.20431 459.804 0.527942 480.289 3.28914 480.892Z" fill="#F7DABA"/>
<path d="M4.5698 475.662C1.36922 474.71 0.332856 480.545 0.0516298 482.549C-0.406304 485.812 2.2985 489.629 3.56209 489.825C4.82586 490.021 5.30565 482.555 5.63262 482.353C5.95958 482.151 5.31231 486.126 6.51854 486.185C7.72482 486.244 8.2768 481.376 7.7555 479.364C7.23437 477.352 6.57567 476.258 4.5698 475.662Z" fill="#F7DABA"/>
<path d="M13.3379 434.854C13.3379 434.854 27.1562 410.04 35.9764 414.862C44.7964 419.683 20.0412 440.793 20.0412 440.793L13.3379 434.854Z" fill="#EF1B34"/>
<path d="M43.9277 474.301C41.1915 475.522 39.6686 480.632 40.5932 485.385C41.3291 489.166 42.6248 494.022 44.9011 499.702C50.5839 513.881 54.9808 532.84 59.012 532.772C63.0432 532.704 64.3787 520.945 60.4294 505.626C56.8596 491.78 53.5892 473.623 50.6214 472.721C49.1181 472.265 46.3215 473.234 43.9277 474.301Z" fill="#F7DABA"/>
<path d="M60.3382 529.746C49.3871 525.799 54.3431 577.582 58.0193 588.658C61.6956 599.734 63.0758 580.762 63.7368 561.646C64.3978 542.53 64.6467 531.299 60.3382 529.746Z" fill="#F7DABA"/>
<path d="M54.3594 568.205C54.4841 568.401 56.0837 591.998 56.0837 591.998C56.0837 591.998 63.0629 592.585 63.0629 591.998C63.0629 591.411 63.413 568.682 63.413 568.682L54.3594 568.205Z" fill="#F7DABA"/>
<path d="M30.5254 574.787C30.6499 574.983 31.4392 591.998 31.4392 591.998C31.4392 591.998 38.4185 592.585 38.4185 591.998C38.4185 591.411 38.9585 576.645 38.9585 576.645L30.5254 574.787Z" fill="#F7DABA"/>
<path d="M30.6047 474.075C27.7195 474.648 25.3841 479.314 25.5087 484.188C25.6076 488.065 26.0793 493.124 27.3773 499.216C30.6177 514.422 31.8095 534.024 35.7755 534.877C39.7413 535.73 42.9878 524.498 41.6357 508.569C40.4134 494.172 40.1946 475.613 37.4316 474.051C36.0319 473.26 33.1289 473.573 30.6047 474.075Z" fill="#F7DABA"/>
<path d="M37.2926 531.081C26.5237 526.491 29.5294 578.509 32.7281 589.789C35.9267 601.068 37.848 582.194 39.3245 563.142C40.801 544.089 41.5293 532.887 37.2926 531.081Z" fill="#F7DABA"/>
<path d="M55.7902 474.066C55.7902 474.066 65.0656 522.238 64.844 530.879C64.6223 539.52 63.335 582.421 63.335 582.421C63.335 582.421 54.9256 582.222 54.9168 582.183C54.7636 581.486 51.5428 563.202 50.6624 548.887C50.1071 539.857 51.8384 532.849 51.5812 531.435C50.9165 527.779 42.4482 506.418 42.4482 506.418C42.4482 506.418 42.1304 526.926 42.1304 531.911C42.1304 536.896 38.7155 582.421 38.7155 582.421L30.9327 582.5C30.9327 582.5 27.3136 555.01 27.3136 548.53C27.3136 542.049 29.1891 531.89 29.1059 530.561C29.0229 529.232 16.9059 487.138 25.2145 474.509C36.1395 457.903 55.7902 474.066 55.7902 474.066Z" fill="#222222"/>
<path d="M57.1392 478.19L23.1836 478.419C23.1836 478.419 23.9861 447.408 24.0049 440.432C24.0796 420.571 25.517 417.236 30.2212 415.006C31.8077 414.262 33.8052 413.843 35.9334 413.69C35.9334 413.69 35.9334 413.69 35.9519 413.69C36.6426 413.9 38.4719 415.684 45.4535 414.281C49.2805 414.929 52.3604 415.959 53.1631 416.721C55.0487 418.494 55.6271 421.944 55.9633 428.272C56.0751 430.044 56.7847 433.627 56.6352 441.08C56.4113 452.078 55.9074 476.989 57.1392 478.19Z" fill="#EF1B34"/>
<path d="M88.9372 422.138C88.9247 418.978 70.5594 417.35 62.7139 417.238C54.8686 417.126 48.6664 418.44 48.6817 422.298C48.6971 426.156 54.9094 427.421 62.7536 427.247C70.598 427.072 88.9499 425.299 88.9372 422.138Z" fill="#F7DABA"/>
<path d="M103.424 389.416C100.967 388.068 90.3762 405.781 87.5764 410.887C84.7765 415.993 82.1978 421.589 84.953 423.1C87.7081 424.611 91.0402 419.428 93.8402 414.322C96.6401 409.216 105.881 390.763 103.424 389.416Z" fill="#F7DABA"/>
<path d="M75.082 418.207L83.5004 417.889L89.5361 407.604L95.135 411.814C95.135 411.814 90.6876 421.225 88.9802 422.932C87.2727 424.64 75.1616 426.426 75.1616 426.426L75.082 418.207Z" fill="#F7DABA"/>
<path d="M45.7057 423.566C45.7057 423.566 40.2777 414.214 58.8837 416.181C69.7325 417.328 75.1421 417.886 75.1421 417.886L75.5831 426.618C75.5831 426.618 53.0917 432.977 45.7057 423.566Z" fill="#EF1B34"/>
<path d="M63.1195 590.27C63.1195 590.27 63.8549 592.784 68.3018 596.058C72.7487 599.332 73.9152 598.618 74.0156 599.843C74.1163 601.067 55.5293 600.059 55.5293 600.059L55.8199 589.99C55.8199 589.99 63.1173 590.007 63.1195 590.27Z" fill="#1D262D"/>
<path d="M38.4699 589.993C38.4699 589.993 39.313 592.106 42.3081 595.52C44.9533 598.535 47.2912 597.89 47.0771 598.969C46.8716 600.004 31.1582 599.333 31.1582 599.333V589.993C31.1582 589.993 38.4739 589.998 38.4699 589.993Z" fill="#1D262D"/>
<path d="M98.9258 393.496C99.6172 392.75 99.4882 391.592 99.3914 390.579C99.2867 389.483 99.2724 388.378 99.3484 387.28C99.3815 386.802 99.4706 386.258 99.8751 386C100.32 385.717 100.897 385.927 101.399 386.089C102.383 386.407 103.624 386.441 104.279 385.641C104.825 384.975 105.543 383.363 106.296 382.945C106.433 382.869 106.756 382.435 107.289 382.786C108.67 383.697 107.906 385.618 107.575 387.074C107.055 389.359 106.451 390.933 104.293 392.573C103.094 393.486 101.574 394.559 100.752 395.919" fill="#F7DABA"/>
<path d="M34.0109 391.746C34.0368 391.545 34.0643 391.344 34.0935 391.143C34.4001 389.034 34.7672 386.817 35.9938 385.022C37.1209 383.371 38.9167 382.751 40.8529 382.689C43.0814 382.618 45.2757 383.361 47.5004 383.179C49.1698 383.043 48.9681 384.324 50.5043 383.66C52.4343 382.825 57.9706 393.125 52.5294 394.222C49.7603 394.78 52.2172 398.49 50.4302 399.285C48.7809 400.017 48.541 397.364 47.9286 396.267C47.6336 395.738 47.3807 394.956 46.6181 395.353C46.1214 395.612 46.2128 396.539 46.1646 397.058C45.9879 398.972 46.406 400.919 46.0224 402.818C45.412 405.843 40.376 406.861 37.6457 406.903C35.2973 406.939 34.8186 403.662 34.4163 401.957C33.629 398.62 33.5744 395.136 34.0109 391.746Z" fill="#1D262D"/>
<path d="M36.1641 413.671L36.3921 413.69H36.221C36.2022 413.69 36.2022 413.69 36.2022 413.69C36.1831 413.671 36.1641 413.671 36.1641 413.671Z" fill="url(#paint7_linear)"/>
<path d="M32.9336 390.991C32.9336 391.067 32.9336 391.123 32.9525 391.199C32.9525 391.898 33.0282 392.579 33.1604 393.221H55.03C55.1623 392.579 55.2377 391.898 55.2377 391.199C55.2567 391.123 55.2567 391.067 55.2567 390.991C55.2567 384.829 50.2666 379.839 44.1046 379.839C37.9237 379.839 32.9336 384.829 32.9336 390.991Z" fill="#EF1B34"/>
<path d="M31.1113 392.201V392.22C31.1113 392.768 31.5582 393.222 32.1413 393.222H55.9463C56.5097 393.222 56.9761 392.768 56.9761 392.22V392.201C56.9761 391.653 56.5097 391.199 55.9463 391.199H32.1413C31.5582 391.199 31.1113 391.653 31.1113 392.201Z" fill="#EF1B34"/>
<path d="M368.294 594.076C402.33 594.076 429.922 589.241 429.922 583.275C429.922 577.31 402.33 572.475 368.294 572.475C334.258 572.475 306.666 577.31 306.666 583.275C306.666 589.241 334.258 594.076 368.294 594.076Z" fill="url(#paint8_linear)"/>
<path d="M400.68 577.071H334.176L340.364 560.116L346.076 544.489L351.295 530.193L357.006 514.567L364.243 494.739C365.214 492.073 369.642 492.073 370.612 494.739L377.849 514.567L383.561 530.193L388.779 544.489L394.491 560.116L400.68 577.071Z" fill="#EF1B34"/>
<path d="M409.848 584.719H325.002C322.717 584.719 320.86 582.874 320.846 580.59C320.831 578.284 322.696 576.407 325.002 576.407H409.848C412.153 576.407 414.018 578.284 414.004 580.59C413.989 582.874 412.133 584.719 409.848 584.719Z" fill="#D21C32"/>
<path d="M383.557 530.194H351.291L357.002 514.568H377.845L383.557 530.194Z" fill="#FFFDFF"/>
<path d="M394.49 560.116H340.363L346.075 544.489H388.778L394.49 560.116Z" fill="#FFFDFF"/>
<path d="M479.795 568.027C508.568 568.027 531.893 563.191 531.893 557.226C531.893 551.261 508.568 546.425 479.795 546.425C451.022 546.425 427.697 551.261 427.697 557.226C427.697 563.191 451.022 568.027 479.795 568.027Z" fill="url(#paint9_linear)"/>
<path d="M503.071 494.992V545.313C503.071 551.745 497.857 556.959 491.424 556.959H463.789C457.357 556.959 452.143 551.745 452.143 545.313V494.992H503.071Z" fill="#222222"/>
<path d="M503.071 494.992V499.967C499.044 503.022 500.607 517.922 497.338 517.922C493.691 517.922 495.799 501.696 491.725 501.696C487.627 501.696 492.956 511.029 488.456 511.029C483.955 511.029 485.045 501.506 482.581 501.506C480.117 501.506 482.629 522.517 478.531 522.517C474.433 522.517 478.436 500.606 475.333 500.606C472.23 500.606 474.741 509.394 470.927 509.394C467.137 509.394 469.363 500.914 465.36 500.914C461.357 500.914 465.052 514.132 460.765 514.132C456.477 514.132 456.075 509.442 455.933 503.923C455.838 500.298 453.635 497.479 452.143 495.963V494.992H503.071Z" fill="#D4E6F9"/>
<path d="M502.864 495.256C502.864 496.482 491.574 497.477 477.647 497.477C463.72 497.477 452.43 496.482 452.43 495.256C452.43 494.029 463.72 493.035 477.647 493.035C491.574 493.035 502.864 494.029 502.864 495.256Z" fill="#D4E6F9"/>
<path d="M502.964 496.011H501.811V490.15C501.811 476.799 490.949 465.937 477.598 465.937C464.248 465.937 453.385 476.799 453.385 490.15V496.011H452.232V490.15C452.232 476.163 463.612 464.784 477.598 464.784C491.585 464.784 502.964 476.163 502.964 490.15V496.011Z" fill="#222222"/>
<path d="M200.564 585.021C252.32 585.021 294.277 580.185 294.277 574.22C294.277 568.255 252.32 563.419 200.564 563.419C148.808 563.419 106.852 568.255 106.852 574.22C106.852 580.185 148.808 585.021 200.564 585.021Z" fill="url(#paint10_linear)"/>
<path d="M276.91 576.724L281.165 575.752L233.109 365.669H176.709L224.988 576.724L229.244 575.752L223.045 548.65H270.487L276.91 576.724ZM209.425 489.111H256.868L262.679 514.517H215.236L209.425 489.111ZM242.25 425.208H194.808L188.997 399.805H236.439L242.25 425.208ZM243.248 429.572L249.06 454.978H201.617L195.806 429.572H243.248ZM250.058 459.341L255.87 484.747H208.427L202.615 459.341H250.058ZM229.629 370.035L235.441 395.441H187.998L182.187 370.035H229.629ZM222.046 544.286L216.235 518.88H263.678L269.489 544.286H222.046Z" fill="#B7D6ED"/>
<path d="M169.144 365.669L121.088 575.752L125.343 576.724L131.765 548.65H179.209L173.009 575.752L177.265 576.724L225.544 365.669H169.144ZM172.624 370.035H220.066L214.255 395.441H166.812L172.624 370.035ZM146.383 484.747L152.195 459.341H199.638L193.826 484.747H146.383ZM192.828 489.111L187.017 514.517H139.573L145.385 489.111H192.828ZM153.193 454.978L159.005 429.572H206.447L200.636 454.978H153.193ZM160.003 425.208L165.814 399.805H213.256L207.445 425.208H160.003ZM132.764 544.286L138.575 518.88H186.018L180.207 544.286H132.764Z" fill="#C4DCF2"/>
<defs>
<linearGradient id="paint0_linear" x1="0" y1="597.96" x2="104.539" y2="597.96" gradientUnits="userSpaceOnUse">
<stop offset="0.0456989" stop-color="#F0F5FC"/>
<stop offset="1" stop-color="#FAFBFE"/>
</linearGradient>
<linearGradient id="paint1_linear" x1="566.203" y1="558.497" x2="645.938" y2="558.497" gradientUnits="userSpaceOnUse">
<stop offset="0.0456989" stop-color="#F0F5FC"/>
<stop offset="1" stop-color="#FAFBFE"/>
</linearGradient>
<linearGradient id="paint2_linear" x1="311.186" y1="98.4303" x2="348.826" y2="98.4303" gradientUnits="userSpaceOnUse">
<stop stop-color="#EF1B34"/>
<stop offset="1" stop-color="#EF1B34"/>
</linearGradient>
<linearGradient id="paint3_linear" x1="503.34" y1="208.34" x2="412.914" y2="240.75" gradientUnits="userSpaceOnUse">
<stop offset="0.0456989" stop-color="#F0F5FC"/>
<stop offset="1" stop-color="#FAFBFE"/>
</linearGradient>
<linearGradient id="paint4_linear" x1="498.987" y1="225.75" x2="408.56" y2="258.16" gradientUnits="userSpaceOnUse">
<stop offset="0.0456989" stop-color="#F0F5FC"/>
<stop offset="1" stop-color="#FAFBFE"/>
</linearGradient>
<linearGradient id="paint5_linear" x1="494.629" y1="243.163" x2="404.203" y2="275.573" gradientUnits="userSpaceOnUse">
<stop offset="0.0456989" stop-color="#F0F5FC"/>
<stop offset="1" stop-color="#FAFBFE"/>
</linearGradient>
<linearGradient id="paint6_linear" x1="324.68" y1="170.656" x2="337.793" y2="170.656" gradientUnits="userSpaceOnUse">
<stop offset="0.0456989" stop-color="#F0F5FC"/>
<stop offset="1" stop-color="#FAFBFE"/>
</linearGradient>
<linearGradient id="paint7_linear" x1="36.2781" y1="413.672" x2="36.2781" y2="413.688" gradientUnits="userSpaceOnUse">
<stop offset="0.061828" stop-color="#E38204"/>
<stop offset="1" stop-color="#E35802"/>
</linearGradient>
<linearGradient id="paint8_linear" x1="306.666" y1="583.275" x2="429.922" y2="583.275" gradientUnits="userSpaceOnUse">
<stop offset="0.0456989" stop-color="#F0F5FC"/>
<stop offset="1" stop-color="#FAFBFE"/>
</linearGradient>
<linearGradient id="paint9_linear" x1="427.697" y1="557.226" x2="531.893" y2="557.226" gradientUnits="userSpaceOnUse">
<stop offset="0.0456989" stop-color="#F0F5FC"/>
<stop offset="1" stop-color="#FAFBFE"/>
</linearGradient>
<linearGradient id="paint10_linear" x1="106.852" y1="574.22" x2="294.277" y2="574.22" gradientUnits="userSpaceOnUse">
<stop offset="0.0456989" stop-color="#F0F5FC"/>
<stop offset="1" stop-color="#FAFBFE"/>
</linearGradient>
</defs>
</svg>
