<svg width="33" height="49" viewBox="0 0 33 49" fill="none" xmlns="http://www.w3.org/2000/svg">
<circle cx="16.3995" cy="16.3995" r="16.3995" fill="#EF1B34"/>
<path d="M16.3989 37.4839L16.338 37.0206C16.077 35.0335 14.9746 33.2544 13.3114 32.1362L19.4863 32.1362C17.8445 33.2567 16.7497 35.0162 16.4699 36.9842L16.3989 37.4839Z" fill="#EF1B34"/>
<circle cx="16.3999" cy="44.0009" r="4.02882" fill="white"/>
<circle cx="16.3999" cy="44.0008" r="2.17916" fill="#EF1B34"/>
<path d="M21.0418 14.843L16.0421 10.0328L10.8852 15.1833V16.7222L11.6867 15.9224V21.6664H12.7214V14.8877L16.0556 11.5591L19.3388 14.7181V20.1196H20.3745V15.7139L21.0418 16.3567V14.843Z" fill="white"/>
<path d="M14.0966 20.8529V15.9499L16.0505 13.8484L17.7129 15.597H18.783L16.0442 12.7152L13.3575 15.6073V21.6664H25.0423V20.8529H14.0966Z" fill="white"/>
<path d="M16.2346 16.4964H15.2488V17.5357H16.2346V16.4964Z" fill="white"/>
<path d="M17.613 16.5113H16.6272V17.5506H17.613V16.5113Z" fill="white"/>
<path d="M16.2691 18.0067H15.2844V19.0448H16.2691V18.0067Z" fill="white"/>
<path d="M17.6348 18.0067H16.649V19.0448H17.6348V18.0067Z" fill="white"/>
<path fill-rule="evenodd" clip-rule="evenodd" d="M23.815 14.3801H22.8615V12.5353L23.5839 12.981V12.4391L21.3 10.6275L18.9943 12.3852L21.376 14.6769V17.1633L20.7088 16.5205V20.1471H25.0319V15.7161L23.815 14.3801ZM22.5075 16.6374H23.2008V17.3661H22.5075V16.6374ZM23.2258 18.4318H22.5336V17.7007H23.2268L23.2258 18.4318ZM23.4767 16.6488H24.1699V17.3799H23.4767V16.6488ZM24.1856 18.4318H23.4923V17.7007H24.1856V18.4318Z" fill="white"/>
<path fill-rule="evenodd" clip-rule="evenodd" d="M10.5532 15.0206L11.7503 13.8255L10.3408 12.2706L7.75195 14.8167V21.6149L11.3537 21.6252V16.7497L10.5532 17.5518V15.0206ZM8.28596 16.32H8.97924V17.051H8.28596V16.32ZM8.31095 17.3833H9.0011V18.1144H8.31095V17.3833ZM8.33281 18.7182H9.02608V19.4492H8.33281V18.7182ZM9.05107 20.5126H8.35779V19.7815H9.05107V20.5126ZM9.25926 16.3315H9.94837V17.0613H9.2551L9.25926 16.3315ZM9.27487 17.3833H9.96815V18.1144H9.27071L9.27487 17.3833ZM9.3061 18.7297H9.99938V19.4607H9.30194L9.3061 18.7297ZM10.0108 20.5126H9.31339V19.7815H10.0108V20.5126Z" fill="white"/>
</svg>
