<svg width="19" height="13" viewBox="0 0 19 13" fill="none" xmlns="http://www.w3.org/2000/svg">
<path d="M18.696 1.03463L18.0736 0.412269C17.8781 0.216553 17.6173 0.108887 17.339 0.108887C17.0606 0.108887 16.7997 0.216553 16.6041 0.412269L7.85905 9.15721L2.39524 3.69324C2.19967 3.49784 1.93877 3.39002 1.66041 3.39002C1.38221 3.39002 1.12146 3.49784 0.925748 3.69324L0.303228 4.31546C0.107512 4.51148 0 4.77254 0 5.05059C0 5.32879 0.107512 5.58969 0.303228 5.78541L6.4722 11.9541C6.48039 11.9657 6.48904 11.9765 6.49908 11.9864L7.1216 12.5985C7.31716 12.7935 7.57806 12.8909 7.85858 12.8909H7.86183C8.14034 12.8909 8.40124 12.7935 8.5965 12.5985L9.21917 11.981C9.22921 11.9711 9.23771 11.9629 9.2428 11.9545L18.6958 2.50242C19.1013 2.09786 19.1013 1.43966 18.696 1.03463Z" fill="black"/>
</svg>
