<svg width="39" height="26" viewBox="0 0 39 26" fill="none" xmlns="http://www.w3.org/2000/svg">
<path d="M29.7016 10.7503L18.5277 0L7.0025 11.5109V14.9501L8.79386 13.1626V26H11.1063V10.8502L18.5579 3.41101L25.8955 10.4712V22.5429H28.2103V12.6965L29.7016 14.1332V10.7503Z" fill="#EF1B34"/>
<path d="M14.1797 24.1818V13.2241L18.5465 8.52752L22.2618 12.4353H24.6534L18.5325 5.99487L12.528 12.4584V26H38.6422V24.1818H14.1797Z" fill="#EF1B34"/>
<path d="M18.958 14.4456H16.7548V16.7682H18.958V14.4456Z" fill="#EF1B34"/>
<path d="M22.0384 14.4789H19.8353V16.8015H22.0384V14.4789Z" fill="#EF1B34"/>
<path d="M19.0351 17.8207H16.8343V20.1408H19.0351V17.8207Z" fill="#EF1B34"/>
<path d="M22.0873 17.8207H19.8841V20.1408H22.0873V17.8207Z" fill="#EF1B34"/>
<path fill-rule="evenodd" clip-rule="evenodd" d="M35.8994 9.71574H33.7684V5.59282L35.3829 6.58898V5.37771L30.2787 1.32906L25.1256 5.25736L30.4485 10.379V15.936L28.9573 14.4994V22.6043H38.619V12.7017L35.8994 9.71574ZM32.9774 14.7606H34.5268V16.3892H32.9774V14.7606ZM34.5826 18.7708H33.0355V17.137H34.5849L34.5826 18.7708ZM35.1433 14.7862H36.6927V16.42H35.1433V14.7862ZM36.7276 18.7708H35.1782V17.137H36.7276V18.7708Z" fill="#EF1B34"/>
<path fill-rule="evenodd" clip-rule="evenodd" d="M6.26046 11.1472L8.93587 8.47631L5.78586 5.00128L0 10.6914V25.8848L8.04949 25.9078V15.0115L6.26046 16.8041V11.1472ZM1.19347 14.0512H2.74288V15.685H1.19347V14.0512ZM1.2493 16.4277H2.79173V18.0615H1.2493V16.4277ZM1.29816 19.411H2.84757V21.0448H1.29816V19.411ZM2.9034 23.4213H1.35399V21.7874H2.9034V23.4213ZM3.36869 14.0768H4.90879V15.7081H3.35938L3.36869 14.0768ZM3.40359 16.4277H4.953V18.0615H3.39428L3.40359 16.4277ZM3.47338 19.4366H5.02279V21.0704H3.46407L3.47338 19.4366ZM5.04838 23.4213H3.48966V21.7874H5.04838V23.4213Z" fill="#EF1B34"/>
</svg>
