<svg width="200" height="26" viewBox="0 0 200 26" fill="none" xmlns="http://www.w3.org/2000/svg">
<path d="M29.7016 10.7503L18.5277 0L7.0025 11.5109V14.9501L8.79386 13.1626V26H11.1063V10.8502L18.5579 3.41101L25.8955 10.4712V22.5429H28.2103V12.6965L29.7016 14.1332V10.7503Z" fill="white"/>
<path d="M14.1797 24.1818V13.2241L18.5465 8.52752L22.2618 12.4353H24.6534L18.5325 5.99487L12.528 12.4584V26H38.6422V24.1818H14.1797Z" fill="white"/>
<path d="M18.958 14.4456H16.7548V16.7682H18.958V14.4456Z" fill="white"/>
<path d="M22.0384 14.4789H19.8353V16.8015H22.0384V14.4789Z" fill="white"/>
<path d="M19.0351 17.8207H16.8343V20.1408H19.0351V17.8207Z" fill="white"/>
<path d="M22.0873 17.8207H19.8841V20.1408H22.0873V17.8207Z" fill="white"/>
<path fill-rule="evenodd" clip-rule="evenodd" d="M35.8994 9.71574H33.7684V5.59282L35.3829 6.58898V5.37771L30.2787 1.32906L25.1256 5.25736L30.4485 10.379V15.936L28.9573 14.4994V22.6043H38.619V12.7017L35.8994 9.71574ZM32.9774 14.7606H34.5268V16.3892H32.9774V14.7606ZM34.5826 18.7708H33.0355V17.137H34.5849L34.5826 18.7708ZM35.1433 14.7862H36.6927V16.42H35.1433V14.7862ZM36.7276 18.7708H35.1782V17.137H36.7276V18.7708Z" fill="white"/>
<path fill-rule="evenodd" clip-rule="evenodd" d="M6.26046 11.1472L8.93587 8.47631L5.78586 5.00128L0 10.6914V25.8848L8.04949 25.9078V15.0115L6.26046 16.8041V11.1472ZM1.19347 14.0512H2.74288V15.685H1.19347V14.0512ZM1.2493 16.4277H2.79173V18.0615H1.2493V16.4277ZM1.29816 19.411H2.84757V21.0448H1.29816V19.411ZM2.9034 23.4213H1.35399V21.7874H2.9034V23.4213ZM3.36869 14.0768H4.90879V15.7081H3.35938L3.36869 14.0768ZM3.40359 16.4277H4.953V18.0615H3.39428L3.40359 16.4277ZM3.47338 19.4366H5.02279V21.0704H3.46407L3.47338 19.4366ZM5.04838 23.4213H3.48966V21.7874H5.04838V23.4213Z" fill="white"/>
<path d="M57.0837 18.2582V5.37565H61.7947V1.46549H47.3914V5.37565H52.1024V18.2582H57.0837Z" fill="white"/>
<path d="M64.7966 1.46549V18.2582H69.7778V13.6731H72.1979C76.157 13.6731 78.8474 11.2874 78.8474 7.58675C78.8474 3.85116 76.3098 1.46549 72.5386 1.46549H64.7966ZM69.7778 5.18945H71.2111C72.8323 5.18945 73.8192 6.00407 73.8192 7.59839C73.8192 9.20435 72.8323 10.019 71.1758 10.019H69.7778V5.18945Z" fill="white"/>
<path d="M91.3888 18.2582H96.8399L91.3183 1.46549H85.0683L79.5466 18.2582H84.4574L85.362 14.9183H90.5194L91.3888 18.2582ZM87.8643 5.58512H88.0993L89.6501 11.4387H86.2548L87.8643 5.58512Z" fill="white"/>
<path d="M115.584 18.2582V1.46549H110.603V7.84277H104.635V1.46549H99.6539V18.2582H104.635V11.7529H110.603V18.2582H115.584Z" fill="white"/>
<path d="M127.057 18.7237C131.627 18.7237 134.916 15.8027 134.94 11.718H130.182C130.029 13.4869 128.772 14.6623 127.068 14.6623C124.977 14.6623 123.708 12.8352 123.708 9.8444C123.708 6.86523 124.977 5.06144 127.057 5.06144C128.772 5.06144 130.029 6.24845 130.158 7.98242H134.916C134.904 3.9908 131.533 1 127.057 1C121.817 1 118.633 4.35156 118.633 9.85604C118.633 15.3605 121.829 18.7237 127.057 18.7237Z" fill="white"/>
<path d="M142.899 18.2582V5.37565H149.713V1.46549H137.918V18.2582H142.899Z" fill="white"/>
<path d="M152.833 1.46549V18.2582H157.814V13.6731H160.234C164.193 13.6731 166.883 11.2874 166.883 7.58675C166.883 3.85116 164.346 1.46549 160.575 1.46549H152.833ZM157.814 5.18945H159.247C160.868 5.18945 161.855 6.00407 161.855 7.59839C161.855 9.20435 160.868 10.019 159.212 10.019H157.814V5.18945Z" fill="white"/>
<path d="M172.141 18.4444C175.689 18.4444 177.392 16.5592 178.743 13.452L183.936 1.46549H178.661L176.088 9.2509H175.853L173.104 1.46549H167.829L173.292 13.836C172.775 14.4412 172.082 14.5343 171.283 14.5343C170.438 14.5343 170.156 14.4179 170.156 14.4179V18.2582C170.156 18.2582 171.072 18.4444 172.141 18.4444Z" fill="white"/>
<path d="M190.369 11.59H192.542C193.987 11.59 194.856 12.1486 194.856 13.0912C194.856 14.1851 193.94 14.9067 192.589 14.9067C191.062 14.9067 190.11 14.2201 190.087 13.0912H185.34C185.493 16.5126 188.301 18.7237 192.483 18.7237C196.842 18.7237 199.967 16.6872 199.967 13.5102C199.967 11.3922 198.475 9.86768 196.137 9.64657V9.41382C198.04 9.08797 199.379 7.5402 199.379 5.63167C199.379 2.79216 196.619 1 192.612 1C188.336 1 185.669 3.2111 185.646 6.58594H190.145C190.145 5.41056 191.097 4.60758 192.507 4.60758C193.905 4.60758 194.751 5.24764 194.751 6.30664C194.751 7.34237 193.905 7.98242 192.565 7.98242H190.369V11.59Z" fill="white"/>
<path d="M49.3494 25.3088C50.3605 25.3088 51.0974 24.7058 51.1651 23.8312H50.3035C50.2181 24.272 49.8443 24.5577 49.353 24.5577C48.7015 24.5577 48.2992 24.0322 48.2992 23.1859C48.2992 22.3395 48.7015 21.8176 49.3494 21.8176C49.8407 21.8176 50.2145 22.1244 50.2964 22.5828H51.1615C51.101 21.7048 50.3427 21.0665 49.3494 21.0665C48.1355 21.0665 47.3914 21.874 47.3914 23.1859C47.3914 24.5012 48.139 25.3088 49.3494 25.3088Z" fill="white"/>
<path d="M56.4778 25.203V21.1723H52.8893V25.203H53.7793V21.9022H55.5913V25.203H56.4778Z" fill="white"/>
<path d="M61.2031 24.4801H59.327V23.5033H61.0999V22.8297H59.327V21.8987H61.2031V21.1723H58.437V25.203H61.2031V24.4801Z" fill="white"/>
<path d="M67.1816 26V24.4801H66.6618V21.1723H65.7754V24.4801H63.9633V21.1723H63.0733V25.203H66.377V26H67.1816Z" fill="white"/>
<path d="M71.5758 25.203H72.4587V21.1723H71.6043L69.7531 23.8383H69.6997V21.1723H68.8132V25.203H69.6712L71.5224 22.5441H71.5758V25.203Z" fill="white"/>
<path d="M77.0986 25.203H78.0598L76.618 21.1723H75.5678L74.1295 25.203H75.0195L75.3364 24.2438H76.7889L77.0986 25.203ZM76.0413 22.0116H76.0911L76.6038 23.5914H75.5251L76.0413 22.0116Z" fill="white"/>
<path d="M83.0842 25.203V21.1723H80.2006L80.0795 23.5385C80.051 24.0604 79.9549 24.4519 79.5348 24.4519C79.4565 24.4519 79.3782 24.4378 79.3355 24.4272V25.1995C79.3924 25.2171 79.5099 25.2383 79.6559 25.2383C80.5245 25.2383 80.8449 24.5965 80.8983 23.602L80.998 21.8987H82.1942V25.203H83.0842Z" fill="white"/>
<path d="M87.806 25.203H88.6889V21.1723H87.8344L85.9832 23.8383H85.9298V21.1723H85.0434V25.203H85.9013L87.7526 22.5441H87.806V25.203Z" fill="white"/>
<path d="M91.5167 23.4997H92.0721C92.5562 23.4997 92.841 23.6972 92.841 24.0252C92.841 24.3637 92.542 24.6 92.0863 24.6C91.6164 24.6 91.3066 24.3849 91.2853 24.0463H90.4344C90.47 24.8081 91.118 25.3088 92.0756 25.3088C93.0404 25.3088 93.7524 24.8045 93.7524 24.0851C93.7524 23.5491 93.375 23.1859 92.8197 23.133V23.0801C93.2967 22.9849 93.6278 22.6146 93.6278 22.1667C93.6278 21.5073 93.0083 21.0665 92.1219 21.0665C91.1749 21.0665 90.5768 21.5566 90.5483 22.3148H91.3672C91.3885 21.9692 91.6698 21.7506 92.097 21.7506C92.5277 21.7506 92.7769 21.9551 92.7769 22.276C92.7769 22.6005 92.4921 22.8191 92.0649 22.8191H91.5167V23.4997Z" fill="white"/>
<path d="M98.2606 25.203H99.1435V21.1723H98.289L96.4378 23.8383H96.3844V21.1723H95.498V25.203H96.3559L98.2072 22.5441H98.2606V25.203Z" fill="white"/>
<path d="M101.11 21.1723V25.203H102V23.9546H102.808C103.691 23.9546 104.3 23.401 104.3 22.5687C104.3 21.7294 103.716 21.1723 102.854 21.1723H101.11ZM102 21.8705H102.619C103.114 21.8705 103.399 22.1138 103.399 22.5723C103.399 23.0201 103.11 23.267 102.616 23.267H102V21.8705Z" fill="white"/>
<path d="M107.886 21.0665C106.657 21.0665 105.874 21.8811 105.874 23.1894C105.874 24.4942 106.643 25.3088 107.886 25.3088C109.114 25.3088 109.886 24.4942 109.886 23.1894C109.886 21.8811 109.114 21.0665 107.886 21.0665ZM107.886 21.8141C108.551 21.8141 108.982 22.3466 108.982 23.1894C108.982 24.0252 108.551 24.5612 107.886 24.5612C107.206 24.5612 106.782 24.0252 106.782 23.1894C106.782 22.3466 107.216 21.8141 107.886 21.8141Z" fill="white"/>
<path d="M113.544 25.203C114.434 25.203 114.989 24.7552 114.989 24.0463C114.989 23.5315 114.583 23.1294 114.031 23.0907V23.0413C114.462 22.9778 114.79 22.6075 114.79 22.1773C114.79 21.5566 114.309 21.1723 113.497 21.1723H111.664V25.203H113.544ZM112.554 21.8211H113.27C113.675 21.8211 113.914 22.0116 113.914 22.3325C113.914 22.6569 113.661 22.8438 113.198 22.8438H112.554V21.8211ZM112.554 24.5541V23.4151H113.298C113.804 23.4151 114.081 23.609 114.081 23.9758C114.081 24.3531 113.811 24.5541 113.312 24.5541H112.554Z" fill="white"/>
<path d="M119.259 25.203H120.22L118.778 21.1723H117.728L116.29 25.203H117.18L117.497 24.2438H118.949L119.259 25.203ZM118.201 22.0116H118.251L118.764 23.5914H117.685L118.201 22.0116Z" fill="white"/>
<path d="M125.518 25.203V21.1723H124.628V22.798H122.774V21.1723H121.884V25.203H122.774V23.5209H124.628V25.203H125.518Z" fill="white"/>
<path d="M131.116 25.203V21.1723H130.226V22.798H128.371V21.1723H127.481V25.203H128.371V23.5209H130.226V25.203H131.116Z" fill="white"/>
<path d="M133.079 25.203H134.809C135.667 25.203 136.258 24.667 136.258 23.8559C136.258 23.0483 135.646 22.5088 134.763 22.5088H133.969V21.1723H133.079V25.203ZM137.646 25.203V21.1723H136.76V25.203H137.646ZM133.969 24.5048V23.2H134.57C135.062 23.2 135.346 23.4292 135.346 23.8524C135.346 24.2756 135.065 24.5048 134.574 24.5048H133.969Z" fill="white"/>
<path d="M140.317 19.8498C140.317 20.4211 140.752 20.7843 141.41 20.7843C142.069 20.7843 142.507 20.4211 142.507 19.8498H141.87C141.855 20.1425 141.688 20.3188 141.41 20.3188C141.136 20.3188 140.965 20.1425 140.955 19.8498H140.317ZM142.35 25.203H143.233V21.1723H142.379L140.527 23.8383H140.474V21.1723H139.588V25.203H140.446L142.297 22.5441H142.35V25.203Z" fill="white"/>
<path d="M148.661 23.4997H149.216C149.7 23.4997 149.985 23.6972 149.985 24.0252C149.985 24.3637 149.686 24.6 149.231 24.6C148.761 24.6 148.451 24.3849 148.43 24.0463H147.579C147.614 24.8081 148.262 25.3088 149.22 25.3088C150.185 25.3088 150.897 24.8045 150.897 24.0851C150.897 23.5491 150.519 23.1859 149.964 23.133V23.0801C150.441 22.9849 150.772 22.6146 150.772 22.1667C150.772 21.5073 150.153 21.0665 149.266 21.0665C148.319 21.0665 147.721 21.5566 147.693 22.3148H148.511C148.533 21.9692 148.814 21.7506 149.241 21.7506C149.672 21.7506 149.921 21.9551 149.921 22.276C149.921 22.6005 149.636 22.8191 149.209 22.8191H148.661V23.4997Z" fill="white"/>
<path d="M155.173 25.203H156.135L154.693 21.1723H153.643L152.204 25.203H153.094L153.411 24.2438H154.864L155.173 25.203ZM154.116 22.0116H154.166L154.679 23.5914H153.6L154.116 22.0116Z" fill="white"/>
<path d="M159.333 25.3088C160.34 25.3088 161.077 24.7058 161.145 23.8312H160.283C160.198 24.272 159.824 24.5577 159.333 24.5577C158.681 24.5577 158.279 24.0322 158.279 23.1859C158.279 22.3395 158.681 21.8176 159.329 21.8176C159.82 21.8176 160.194 22.1244 160.276 22.5828H161.141C161.081 21.7048 160.322 21.0665 159.329 21.0665C158.115 21.0665 157.371 21.874 157.371 23.1859C157.371 24.5012 158.119 25.3088 159.333 25.3088Z" fill="white"/>
<path d="M164.542 25.203V21.8987H165.788V21.1723H162.413V21.8987H163.656V25.203H164.542Z" fill="white"/>
<path d="M167.512 21.1723V25.203H168.402V23.9546H169.211C170.093 23.9546 170.702 23.401 170.702 22.5687C170.702 21.7294 170.118 21.1723 169.257 21.1723H167.512ZM168.402 21.8705H169.022C169.517 21.8705 169.801 22.1138 169.801 22.5723C169.801 23.0201 169.513 23.267 169.018 23.267H168.402V21.8705Z" fill="white"/>
<path d="M174.288 21.0665C173.06 21.0665 172.277 21.8811 172.277 23.1894C172.277 24.4942 173.046 25.3088 174.288 25.3088C175.517 25.3088 176.289 24.4942 176.289 23.1894C176.289 21.8811 175.517 21.0665 174.288 21.0665ZM174.288 21.8141C174.954 21.8141 175.385 22.3466 175.385 23.1894C175.385 24.0252 174.954 24.5612 174.288 24.5612C173.608 24.5612 173.185 24.0252 173.185 23.1894C173.185 22.3466 173.619 21.8141 174.288 21.8141Z" fill="white"/>
<path d="M178.796 19.8498C178.796 20.4211 179.231 20.7843 179.889 20.7843C180.548 20.7843 180.986 20.4211 180.986 19.8498H180.349C180.334 20.1425 180.167 20.3188 179.889 20.3188C179.615 20.3188 179.444 20.1425 179.434 19.8498H178.796ZM180.829 25.203H181.712V21.1723H180.858L179.007 23.8383H178.953V21.1723H178.067V25.203H178.925L180.776 22.5441H180.829V25.203Z" fill="white"/>
<path d="M189.197 26V24.4801H188.677V21.1723H187.79V24.4801H186.623V21.1723H185.733V24.4801H184.568V21.1723H183.678V25.203H188.396V26H189.197Z" fill="white"/>
<path d="M193.591 25.203H194.474V21.1723H193.619L191.768 23.8383H191.715V21.1723H190.828V25.203H191.686L193.537 22.5441H193.591V25.203Z" fill="white"/>
<path d="M197.33 22.8826V21.1723H196.44V25.203H197.33V23.5562H197.494L198.928 25.203H200L198.234 23.1436L199.89 21.1723H198.904L197.487 22.8826H197.33Z" fill="white"/>
</svg>
