<svg width="319" height="157" viewBox="0 0 319 157" fill="none" xmlns="http://www.w3.org/2000/svg">
<path d="M20.2083 140.921V114.165H30.0308V106.044H0V114.165H9.82247V140.921H20.2083Z" fill="#222222"/>
<path d="M36.2897 106.044V140.921H46.6756V131.398H51.7215C59.9763 131.398 65.5857 126.443 65.5857 118.757C65.5857 110.999 60.2948 106.044 52.4319 106.044H36.2897ZM46.6756 113.778H49.664C53.0443 113.778 55.1018 115.47 55.1018 118.781C55.1018 122.117 53.0443 123.809 49.5905 123.809H46.6756V113.778Z" fill="#222222"/>
<path d="M91.7345 140.921H103.1L91.5875 106.044H78.5562L67.0436 140.921H77.2825L79.1686 133.984H89.9219L91.7345 140.921ZM84.386 114.6H84.8759L88.1093 126.757H81.0302L84.386 114.6Z" fill="#222222"/>
<path d="M142.182 140.921V106.044H131.796V119.289H119.353V106.044H108.967V140.921H119.353V127.41H131.796V140.921H142.182Z" fill="#222222"/>
<path d="M166.102 141.888C175.631 141.888 182.489 135.821 182.538 127.337H172.618C172.299 131.011 169.678 133.452 166.127 133.452C161.766 133.452 159.121 129.658 159.121 123.446C159.121 117.259 161.766 113.512 166.102 113.512C169.678 113.512 172.299 115.978 172.569 119.579H182.489C182.465 111.289 175.435 105.077 166.102 105.077C155.177 105.077 148.539 112.038 148.539 123.47C148.539 134.903 155.202 141.888 166.102 141.888Z" fill="#222222"/>
<path d="M199.134 140.921V114.165H213.341V106.044H188.748V140.921H199.134Z" fill="#222222"/>
<path d="M219.845 106.044V140.921H230.231V131.398H235.277C243.532 131.398 249.141 126.443 249.141 118.757C249.141 110.999 243.85 106.044 235.987 106.044H219.845ZM230.231 113.778H233.219C236.599 113.778 238.657 115.47 238.657 118.781C238.657 122.117 236.599 123.809 233.146 123.809H230.231V113.778Z" fill="#222222"/>
<path d="M260.103 141.308C267.5 141.308 271.052 137.392 273.869 130.939L284.696 106.044H273.698L268.333 122.213H267.843L262.111 106.044H251.113L262.503 131.736C261.426 132.993 259.98 133.187 258.315 133.187C256.551 133.187 255.963 132.945 255.963 132.945V140.921C255.963 140.921 257.874 141.308 260.103 141.308Z" fill="#222222"/>
<path d="M298.107 127.072H302.639C305.652 127.072 307.464 128.232 307.464 130.189C307.464 132.461 305.554 133.96 302.737 133.96C299.552 133.96 297.568 132.534 297.519 130.189H287.623C287.942 137.295 293.796 141.888 302.516 141.888C311.604 141.888 318.12 137.658 318.12 131.06C318.12 126.661 315.009 123.494 310.134 123.035V122.552C314.102 121.875 316.895 118.66 316.895 114.697C316.895 108.799 311.139 105.077 302.786 105.077C293.87 105.077 288.309 109.669 288.26 116.678H297.642C297.642 114.237 299.626 112.57 302.565 112.57C305.48 112.57 307.244 113.899 307.244 116.098C307.244 118.25 305.48 119.579 302.688 119.579H298.107V127.072Z" fill="#222222"/>
<path d="M4.08249 155.564C6.19054 155.564 7.72704 154.312 7.86807 152.496H6.07178C5.89363 153.411 5.11425 154.004 4.08991 154.004C2.73156 154.004 1.89279 152.913 1.89279 151.155C1.89279 149.397 2.73156 148.313 4.08249 148.313C5.10682 148.313 5.88621 148.951 6.05693 149.903H7.86065C7.73446 148.079 6.15342 146.753 4.08249 146.753C1.55135 146.753 0 148.431 0 151.155C0 153.887 1.55877 155.564 4.08249 155.564Z" fill="#828282"/>
<path d="M18.9451 155.345V146.973H11.463V155.345H13.3187V148.489H17.0969V155.345H18.9451Z" fill="#828282"/>
<path d="M28.7974 153.843H24.8857V151.814H28.5822V150.416H24.8857V148.482H28.7974V146.973H23.03V155.345H28.7974V153.843Z" fill="#828282"/>
<path d="M41.2625 157V153.843H40.1788V146.973H38.3306V153.843H34.5524V146.973H32.6967V155.345H39.585V157H41.2625Z" fill="#828282"/>
<path d="M50.4245 155.345H52.2654V146.973H50.4839L46.6241 152.51H46.5128V146.973H44.6645V155.345H46.4534L50.3132 149.822H50.4245V155.345Z" fill="#828282"/>
<path d="M61.9395 155.345H63.9437L60.9375 146.973H58.7478L55.749 155.345H57.6047L58.2653 153.353H61.2938L61.9395 155.345ZM59.735 148.716H59.8389L60.9078 151.998H58.6587L59.735 148.716Z" fill="#828282"/>
<path d="M74.4195 155.345V146.973H68.4071L68.1547 151.888C68.0953 152.972 67.8949 153.785 67.019 153.785C66.8557 153.785 66.6924 153.755 66.6034 153.733V155.337C66.7221 155.374 66.9671 155.418 67.2714 155.418C69.0826 155.418 69.7506 154.085 69.8619 152.02L70.0698 148.482H72.5638V155.345H74.4195Z" fill="#828282"/>
<path d="M84.2644 155.345H86.1052V146.973H84.3237L80.4639 152.51H80.3526V146.973H78.5043V155.345H80.2932L84.153 149.822H84.2644V155.345Z" fill="#828282"/>
<path d="M92.0012 151.807H93.1591C94.1686 151.807 94.7624 152.217 94.7624 152.898C94.7624 153.602 94.1389 154.092 93.1888 154.092C92.209 154.092 91.5633 153.646 91.5187 152.942H89.7447C89.8189 154.524 91.1699 155.564 93.1666 155.564C95.1781 155.564 96.6627 154.517 96.6627 153.023C96.6627 151.91 95.8759 151.155 94.7179 151.045V150.936C95.7126 150.738 96.4029 149.969 96.4029 149.039C96.4029 147.669 95.1113 146.753 93.2631 146.753C91.2886 146.753 90.0416 147.771 89.9822 149.346H91.6894C91.734 148.628 92.3204 148.174 93.2111 148.174C94.1092 148.174 94.6288 148.599 94.6288 149.266C94.6288 149.939 94.035 150.394 93.1443 150.394H92.0012V151.807Z" fill="#828282"/>
<path d="M106.062 155.345H107.903V146.973H106.122L102.262 152.51H102.15V146.973H100.302V155.345H102.091L105.951 149.822H106.062V155.345Z" fill="#828282"/>
<path d="M112.003 146.973V155.345H113.858V152.752H115.543C117.384 152.752 118.653 151.602 118.653 149.874C118.653 148.13 117.436 146.973 115.64 146.973H112.003ZM113.858 148.423H115.15C116.182 148.423 116.776 148.929 116.776 149.881C116.776 150.811 116.174 151.324 115.143 151.324H113.858V148.423Z" fill="#828282"/>
<path d="M126.131 146.753C123.57 146.753 121.937 148.445 121.937 151.163C121.937 153.873 123.54 155.564 126.131 155.564C128.691 155.564 130.302 153.873 130.302 151.163C130.302 148.445 128.691 146.753 126.131 146.753ZM126.131 148.306C127.519 148.306 128.417 149.412 128.417 151.163C128.417 152.898 127.519 154.012 126.131 154.012C124.713 154.012 123.829 152.898 123.829 151.163C123.829 149.412 124.735 148.306 126.131 148.306Z" fill="#828282"/>
<path d="M137.928 155.345C139.783 155.345 140.941 154.415 140.941 152.942C140.941 151.873 140.095 151.038 138.944 150.958V150.855C139.843 150.723 140.526 149.954 140.526 149.061C140.526 147.771 139.523 146.973 137.831 146.973H134.008V155.345H137.928ZM135.864 148.321H137.356C138.202 148.321 138.7 148.716 138.7 149.383C138.7 150.057 138.173 150.445 137.208 150.445H135.864V148.321ZM135.864 153.997V151.631H137.415C138.469 151.631 139.048 152.034 139.048 152.796C139.048 153.58 138.484 153.997 137.445 153.997H135.864Z" fill="#828282"/>
<path d="M149.843 155.345H151.848L148.841 146.973H146.652L143.653 155.345H145.509L146.169 153.353H149.198L149.843 155.345ZM147.639 148.716H147.743L148.812 151.998H146.563L147.639 148.716Z" fill="#828282"/>
<path d="M162.895 155.345V146.973H161.039V150.35H157.172V146.973H155.316V155.345H157.172V151.851H161.039V155.345H162.895Z" fill="#828282"/>
<path d="M174.566 155.345V146.973H172.71V150.35H168.843V146.973H166.987V155.345H168.843V151.851H172.71V155.345H174.566Z" fill="#828282"/>
<path d="M178.658 155.345H182.265C184.054 155.345 185.287 154.231 185.287 152.547C185.287 150.87 184.01 149.749 182.169 149.749H180.514V146.973H178.658V155.345ZM188.181 155.345V146.973H186.333V155.345H188.181ZM180.514 153.895V151.185H181.768C182.792 151.185 183.386 151.661 183.386 152.54C183.386 153.418 182.8 153.895 181.776 153.895H180.514Z" fill="#828282"/>
<path d="M193.751 144.227C193.751 145.413 194.656 146.167 196.03 146.167C197.403 146.167 198.316 145.413 198.316 144.227H196.987C196.957 144.834 196.609 145.201 196.03 145.201C195.458 145.201 195.102 144.834 195.079 144.227H193.751ZM197.989 155.345H199.83V146.973H198.049L194.189 152.51H194.077V146.973H192.229V155.345H194.018L197.878 149.822H197.989V155.345Z" fill="#828282"/>
<path d="M211.147 151.807H212.305C213.314 151.807 213.908 152.217 213.908 152.898C213.908 153.602 213.285 154.092 212.335 154.092C211.355 154.092 210.709 153.646 210.664 152.942H208.89C208.965 154.524 210.316 155.564 212.312 155.564C214.324 155.564 215.808 154.517 215.808 153.023C215.808 151.91 215.022 151.155 213.864 151.045V150.936C214.858 150.738 215.549 149.969 215.549 149.039C215.549 147.669 214.257 146.753 212.409 146.753C210.434 146.753 209.187 147.771 209.128 149.346H210.835C210.88 148.628 211.466 148.174 212.357 148.174C213.255 148.174 213.775 148.599 213.775 149.266C213.775 149.939 213.181 150.394 212.29 150.394H211.147V151.807Z" fill="#828282"/>
<path d="M224.725 155.345H226.73L223.723 146.973H221.534L218.535 155.345H220.391L221.051 153.353H224.08L224.725 155.345ZM222.521 148.716H222.625L223.694 151.998H221.445L222.521 148.716Z" fill="#828282"/>
<path d="M233.398 155.564C235.498 155.564 237.035 154.312 237.176 152.496H235.379C235.201 153.411 234.422 154.004 233.398 154.004C232.039 154.004 231.2 152.913 231.2 151.155C231.2 149.397 232.039 148.313 233.39 148.313C234.414 148.313 235.194 148.951 235.365 149.903H237.168C237.042 148.079 235.461 146.753 233.39 146.753C230.859 146.753 229.308 148.431 229.308 151.155C229.308 153.887 230.866 155.564 233.398 155.564Z" fill="#828282"/>
<path d="M244.259 155.345V148.482H246.857V146.973H239.821V148.482H242.411V155.345H244.259Z" fill="#828282"/>
<path d="M250.452 146.973V155.345H252.308V152.752H253.993C255.834 152.752 257.103 151.602 257.103 149.874C257.103 148.13 255.886 146.973 254.089 146.973H250.452ZM252.308 148.423H253.599C254.631 148.423 255.225 148.929 255.225 149.881C255.225 150.811 254.624 151.324 253.592 151.324H252.308V148.423Z" fill="#828282"/>
<path d="M264.58 146.753C262.019 146.753 260.386 148.445 260.386 151.163C260.386 153.873 261.99 155.564 264.58 155.564C267.141 155.564 268.752 153.873 268.752 151.163C268.752 148.445 267.141 146.753 264.58 146.753ZM264.58 148.306C265.968 148.306 266.866 149.412 266.866 151.163C266.866 152.898 265.968 154.012 264.58 154.012C263.162 154.012 262.279 152.898 262.279 151.163C262.279 149.412 263.185 148.306 264.58 148.306Z" fill="#828282"/>
<path d="M273.98 144.227C273.98 145.413 274.885 146.167 276.258 146.167C277.632 146.167 278.545 145.413 278.545 144.227H277.216C277.186 144.834 276.837 145.201 276.258 145.201C275.687 145.201 275.331 144.834 275.308 144.227H273.98ZM278.218 155.345H280.059V146.973H278.277L274.418 152.51H274.306V146.973H272.458V155.345H274.247L278.107 149.822H278.218V155.345Z" fill="#828282"/>
<path d="M295.664 157V153.843H294.58V146.973H292.732V153.843H290.297V146.973H288.441V153.843H286.014V146.973H284.158V155.345H293.994V157H295.664Z" fill="#828282"/>
<path d="M304.826 155.345H306.667V146.973H304.885L301.025 152.51H300.914V146.973H299.066V155.345H300.855L304.714 149.822H304.826V155.345Z" fill="#828282"/>
<path d="M312.622 150.525V146.973H310.766V155.345H312.622V151.924H312.963L315.955 155.345H318.189L314.507 151.067L317.959 146.973H315.903L312.948 150.525H312.622Z" fill="#828282"/>
<path d="M191.467 33.0779L157.057 0L121.564 35.4181V46.0002L127.081 40.5003V80H134.202V33.3852L157.15 10.4954L179.746 32.219V69.3628H186.875V39.0663L191.467 43.4867V33.0779Z" fill="#EF1B34"/>
<path d="M143.667 74.4056V40.6894L157.114 26.2385L168.556 38.2626H175.921L157.071 18.4458L138.58 38.3335V80H219V74.4056H143.667Z" fill="#EF1B34"/>
<path d="M158.382 44.4479H151.597V51.5946H158.382V44.4479Z" fill="#EF1B34"/>
<path d="M167.868 44.5504H161.084V51.697H167.868V44.5504Z" fill="#EF1B34"/>
<path d="M158.619 54.833H151.842V61.9718H158.619V54.833Z" fill="#EF1B34"/>
<path d="M168.018 54.833H161.234V61.9718H168.018V54.833Z" fill="#EF1B34"/>
<path fill-rule="evenodd" clip-rule="evenodd" d="M210.553 29.8946H203.991V17.2087L208.963 20.2738V16.5468L193.244 4.08942L177.375 16.1765L193.767 31.9354V49.0338L189.175 44.6134V69.5518H218.928V39.082L210.553 29.8946ZM201.555 45.4171H206.326V50.4284H201.555V45.4171ZM206.498 57.7563H201.734V52.7292H206.505L206.498 57.7563ZM208.225 45.4959H212.996V50.523H208.225V45.4959ZM213.104 57.7563H208.332V52.7292H213.104V57.7563Z" fill="#EF1B34"/>
<path fill-rule="evenodd" clip-rule="evenodd" d="M119.279 34.2992L127.518 26.081L117.818 15.3885L100 32.8967V79.6454L124.789 79.7163V46.1893L119.279 51.7049V34.2992ZM103.675 43.2345H108.447V48.2616H103.675V43.2345ZM103.847 50.5466H108.597V55.5737H103.847V50.5466ZM103.998 59.7262H108.769V64.7533H103.998V59.7262ZM108.941 72.0654H104.17V67.0383H108.941V72.0654ZM110.374 43.3133H115.117V48.3325H110.345L110.374 43.3133ZM110.481 50.5466H115.253V55.5737H110.453L110.481 50.5466ZM110.696 59.805H115.468V64.8321H110.668L110.696 59.805ZM115.547 72.0654H110.747V67.0383H115.547V72.0654Z" fill="#EF1B34"/>
</svg>
